<svg width="320" height="132" viewBox="0 0 320 132" fill="none" xmlns="http://www.w3.org/2000/svg">
<rect y="2" width="20" height="20" rx="10" fill="#437EF7"/>
<path d="M14 10L8.85355 15.1464C8.65829 15.3417 8.34171 15.3417 8.14645 15.1464L6 13" stroke="white" stroke-width="1.67" stroke-linecap="round"/>
<path d="M33.2045 18V16.9773L37.0455 12.7727C37.4962 12.2803 37.8674 11.8523 38.1591 11.4886C38.4508 11.1212 38.6667 10.7765 38.8068 10.4545C38.9508 10.1288 39.0227 9.78788 39.0227 9.43182C39.0227 9.02273 38.9242 8.66856 38.7273 8.36932C38.5341 8.07008 38.2689 7.83901 37.9318 7.67614C37.5947 7.51326 37.2159 7.43182 36.7955 7.43182C36.3485 7.43182 35.9583 7.52462 35.625 7.71023C35.2955 7.89205 35.0398 8.14773 34.858 8.47727C34.6799 8.80682 34.5909 9.19318 34.5909 9.63636H33.25C33.25 8.95455 33.4072 8.35606 33.7216 7.84091C34.036 7.32576 34.464 6.92424 35.0057 6.63636C35.5511 6.34848 36.1629 6.20455 36.8409 6.20455C37.5227 6.20455 38.1269 6.34848 38.6534 6.63636C39.1799 6.92424 39.5928 7.3125 39.892 7.80114C40.1913 8.28977 40.3409 8.83333 40.3409 9.43182C40.3409 9.85985 40.2633 10.2784 40.108 10.6875C39.9564 11.0928 39.6913 11.5455 39.3125 12.0455C38.9375 12.5417 38.4167 13.1477 37.75 13.8636L35.1364 16.6591V16.75H40.5455V18H33.2045ZM42.2693 15.6136V14.4545L47.383 6.36364H48.2239V8.15909H47.6557L43.792 14.2727V14.3636H50.6784V15.6136H42.2693ZM47.7466 18V15.2614V14.7216V6.36364H49.0875V18H47.7466ZM56.844 5.81818L53.094 19.75H51.8668L55.6168 5.81818H56.844ZM58.6744 18L63.879 7.70455V7.61364H57.879V6.36364H65.3335V7.68182L60.1517 18H58.6744ZM77.956 11.2273L76.7514 11.5682C76.6757 11.3674 76.5639 11.1723 76.4162 10.983C76.2723 10.7898 76.0753 10.6307 75.8253 10.5057C75.5753 10.3807 75.2552 10.3182 74.8651 10.3182C74.331 10.3182 73.8859 10.4413 73.5298 10.6875C73.1776 10.9299 73.0014 11.2386 73.0014 11.6136C73.0014 11.947 73.1226 12.2102 73.3651 12.4034C73.6075 12.5966 73.9863 12.7576 74.5014 12.8864L75.7969 13.2045C76.5772 13.3939 77.1586 13.6837 77.5412 14.0739C77.9238 14.4602 78.1151 14.9583 78.1151 15.5682C78.1151 16.0682 77.9711 16.5152 77.6832 16.9091C77.3991 17.303 77.0014 17.6136 76.4901 17.8409C75.9787 18.0682 75.384 18.1818 74.706 18.1818C73.8158 18.1818 73.0791 17.9886 72.4957 17.6023C71.9124 17.2159 71.5431 16.6515 71.3878 15.9091L72.6605 15.5909C72.7817 16.0606 73.0109 16.4129 73.348 16.6477C73.6889 16.8826 74.134 17 74.6832 17C75.3082 17 75.8045 16.8674 76.1719 16.6023C76.5431 16.3333 76.7287 16.0114 76.7287 15.6364C76.7287 15.3333 76.6226 15.0795 76.4105 14.875C76.1984 14.6667 75.8726 14.5114 75.4332 14.4091L73.9787 14.0682C73.1795 13.8788 72.5923 13.5852 72.2173 13.1875C71.8461 12.786 71.6605 12.2841 71.6605 11.6818C71.6605 11.1894 71.7988 10.7538 72.0753 10.375C72.3556 9.99621 72.7363 9.69886 73.2173 9.48295C73.7022 9.26705 74.2514 9.15909 74.8651 9.15909C75.7287 9.15909 76.4067 9.34848 76.8991 9.72727C77.3954 10.1061 77.7476 10.6061 77.956 11.2273ZM85.5335 14.4318V9.27273H86.8744V18H85.5335V16.5227H85.4426C85.2381 16.9659 84.9199 17.3428 84.4881 17.6534C84.0563 17.9602 83.5108 18.1136 82.8517 18.1136C82.3063 18.1136 81.8214 17.9943 81.3972 17.7557C80.9729 17.5133 80.6396 17.1496 80.3972 16.6648C80.1547 16.1761 80.0335 15.5606 80.0335 14.8182V9.27273H81.3744V14.7273C81.3744 15.3636 81.5525 15.8712 81.9085 16.25C82.2684 16.6288 82.7267 16.8182 83.2835 16.8182C83.6169 16.8182 83.9559 16.733 84.3006 16.5625C84.6491 16.392 84.9407 16.1307 85.1756 15.7784C85.4142 15.4261 85.5335 14.9773 85.5335 14.4318ZM89.2304 21.2727V9.27273H90.5259V10.6591H90.6849C90.7834 10.5076 90.9198 10.3144 91.094 10.0795C91.2721 9.84091 91.5259 9.62879 91.8554 9.44318C92.1887 9.25379 92.6395 9.15909 93.2077 9.15909C93.9425 9.15909 94.5902 9.3428 95.1509 9.71023C95.7115 10.0777 96.149 10.5985 96.4634 11.2727C96.7777 11.947 96.9349 12.7424 96.9349 13.6591C96.9349 14.5833 96.7777 15.3845 96.4634 16.0625C96.149 16.7367 95.7134 17.2595 95.1565 17.6307C94.5997 17.9981 93.9577 18.1818 93.2304 18.1818C92.6698 18.1818 92.2209 18.089 91.8838 17.9034C91.5467 17.714 91.2872 17.5 91.1054 17.2614C90.9236 17.0189 90.7834 16.8182 90.6849 16.6591H90.5713V21.2727H89.2304ZM90.5486 13.6364C90.5486 14.2955 90.6452 14.8769 90.8384 15.3807C91.0315 15.8807 91.3137 16.2727 91.6849 16.5568C92.0562 16.8371 92.5107 16.9773 93.0486 16.9773C93.6092 16.9773 94.077 16.8295 94.452 16.5341C94.8308 16.2348 95.1149 15.8333 95.3043 15.3295C95.4974 14.822 95.594 14.2576 95.594 13.6364C95.594 13.0227 95.4993 12.4697 95.3099 11.9773C95.1243 11.4811 94.8421 11.089 94.4634 10.8011C94.0884 10.5095 93.6168 10.3636 93.0486 10.3636C92.5031 10.3636 92.0448 10.5019 91.6736 10.7784C91.3024 11.0511 91.0221 11.4337 90.8327 11.9261C90.6433 12.4148 90.5486 12.9848 90.5486 13.6364ZM98.8804 21.2727V9.27273H100.176V10.6591H100.335C100.433 10.5076 100.57 10.3144 100.744 10.0795C100.922 9.84091 101.176 9.62879 101.505 9.44318C101.839 9.25379 102.289 9.15909 102.858 9.15909C103.593 9.15909 104.24 9.3428 104.801 9.71023C105.361 10.0777 105.799 10.5985 106.113 11.2727C106.428 11.947 106.585 12.7424 106.585 13.6591C106.585 14.5833 106.428 15.3845 106.113 16.0625C105.799 16.7367 105.363 17.2595 104.807 17.6307C104.25 17.9981 103.608 18.1818 102.88 18.1818C102.32 18.1818 101.871 18.089 101.534 17.9034C101.197 17.714 100.937 17.5 100.755 17.2614C100.574 17.0189 100.433 16.8182 100.335 16.6591H100.221V21.2727H98.8804ZM100.199 13.6364C100.199 14.2955 100.295 14.8769 100.488 15.3807C100.682 15.8807 100.964 16.2727 101.335 16.5568C101.706 16.8371 102.161 16.9773 102.699 16.9773C103.259 16.9773 103.727 16.8295 104.102 16.5341C104.481 16.2348 104.765 15.8333 104.954 15.3295C105.147 14.822 105.244 14.2576 105.244 13.6364C105.244 13.0227 105.149 12.4697 104.96 11.9773C104.774 11.4811 104.492 11.089 104.113 10.8011C103.738 10.5095 103.267 10.3636 102.699 10.3636C102.153 10.3636 101.695 10.5019 101.324 10.7784C100.952 11.0511 100.672 11.4337 100.483 11.9261C100.293 12.4148 100.199 12.9848 100.199 13.6364ZM112.076 18.1818C111.288 18.1818 110.597 17.9943 110.002 17.6193C109.411 17.2443 108.949 16.7197 108.616 16.0455C108.286 15.3712 108.121 14.5833 108.121 13.6818C108.121 12.7727 108.286 11.9792 108.616 11.3011C108.949 10.6231 109.411 10.0966 110.002 9.72159C110.597 9.34659 111.288 9.15909 112.076 9.15909C112.864 9.15909 113.553 9.34659 114.144 9.72159C114.739 10.0966 115.201 10.6231 115.53 11.3011C115.864 11.9792 116.03 12.7727 116.03 13.6818C116.03 14.5833 115.864 15.3712 115.53 16.0455C115.201 16.7197 114.739 17.2443 114.144 17.6193C113.553 17.9943 112.864 18.1818 112.076 18.1818ZM112.076 16.9773C112.674 16.9773 113.167 16.8239 113.553 16.517C113.939 16.2102 114.225 15.8068 114.411 15.3068C114.597 14.8068 114.689 14.2652 114.689 13.6818C114.689 13.0985 114.597 12.5549 114.411 12.0511C114.225 11.5473 113.939 11.1402 113.553 10.8295C113.167 10.5189 112.674 10.3636 112.076 10.3636C111.477 10.3636 110.985 10.5189 110.599 10.8295C110.212 11.1402 109.926 11.5473 109.741 12.0511C109.555 12.5549 109.462 13.0985 109.462 13.6818C109.462 14.2652 109.555 14.8068 109.741 15.3068C109.926 15.8068 110.212 16.2102 110.599 16.517C110.985 16.8239 111.477 16.9773 112.076 16.9773ZM117.977 18V9.27273H119.273V10.5909H119.364C119.523 10.1591 119.811 9.80871 120.227 9.53977C120.644 9.27083 121.114 9.13636 121.636 9.13636C121.735 9.13636 121.858 9.13826 122.006 9.14205C122.153 9.14583 122.265 9.15152 122.341 9.15909V10.5227C122.295 10.5114 122.191 10.4943 122.028 10.4716C121.869 10.4451 121.701 10.4318 121.523 10.4318C121.098 10.4318 120.72 10.5208 120.386 10.6989C120.057 10.8731 119.795 11.1155 119.602 11.4261C119.413 11.733 119.318 12.0833 119.318 12.4773V18H117.977ZM128.173 9.27273V10.4091H123.65V9.27273H128.173ZM124.968 7.18182H126.309V15.5C126.309 15.8788 126.364 16.1629 126.474 16.3523C126.588 16.5379 126.731 16.6629 126.906 16.7273C127.084 16.7879 127.271 16.8182 127.468 16.8182C127.616 16.8182 127.737 16.8106 127.832 16.7955C127.927 16.7765 128.002 16.7614 128.059 16.75L128.332 17.9545C128.241 17.9886 128.114 18.0227 127.951 18.0568C127.788 18.0947 127.582 18.1136 127.332 18.1136C126.953 18.1136 126.582 18.0322 126.218 17.8693C125.858 17.7064 125.559 17.4583 125.32 17.125C125.086 16.7917 124.968 16.3712 124.968 15.8636V7.18182Z" fill="#272D37"/>
<rect y="38" width="20" height="20" rx="10" fill="#437EF7"/>
<path d="M14 46L8.85355 51.1464C8.65829 51.3417 8.34171 51.3417 8.14645 51.1464L6 49" stroke="white" stroke-width="1.67" stroke-linecap="round"/>
<path d="M36.8409 54.1591C36.1742 54.1591 35.5739 54.0265 35.0398 53.7614C34.5057 53.4962 34.0777 53.1326 33.7557 52.6705C33.4337 52.2083 33.2576 51.6818 33.2273 51.0909H34.5909C34.6439 51.6174 34.8826 52.053 35.3068 52.3977C35.7348 52.7386 36.2462 52.9091 36.8409 52.9091C37.3182 52.9091 37.7424 52.7973 38.1136 52.5739C38.4886 52.3504 38.7822 52.0436 38.9943 51.6534C39.2102 51.2595 39.3182 50.8144 39.3182 50.3182C39.3182 49.8106 39.2064 49.358 38.983 48.9602C38.7633 48.5587 38.4602 48.2424 38.0739 48.0114C37.6875 47.7803 37.2462 47.6629 36.75 47.6591C36.3939 47.6553 36.0284 47.7102 35.6534 47.8239C35.2784 47.9337 34.9697 48.0758 34.7273 48.25L33.4091 48.0909L34.1136 42.3636H40.1591V43.6136H35.2955L34.8864 47.0455H34.9545C35.1932 46.8561 35.4924 46.6989 35.8523 46.5739C36.2121 46.4489 36.5871 46.3864 36.9773 46.3864C37.6894 46.3864 38.3239 46.5568 38.8807 46.8977C39.4413 47.2348 39.8807 47.697 40.1989 48.2841C40.5208 48.8712 40.6818 49.5417 40.6818 50.2955C40.6818 51.0379 40.5152 51.7008 40.1818 52.2841C39.8523 52.8636 39.3977 53.322 38.8182 53.6591C38.2386 53.9924 37.5795 54.1591 36.8409 54.1591ZM49.2389 54L46.5798 45.2727H47.9889L49.8753 51.9545H49.9662L51.8298 45.2727H53.2616L55.1026 51.9318H55.1935L57.0798 45.2727H58.4889L55.8298 54H54.5116L52.6026 47.2955H52.4662L50.5571 54H49.2389ZM62.7298 54.2045C62.1768 54.2045 61.6749 54.1004 61.2241 53.892C60.7734 53.6799 60.4154 53.375 60.1503 52.9773C59.8851 52.5758 59.7526 52.0909 59.7526 51.5227C59.7526 51.0227 59.851 50.6174 60.048 50.3068C60.245 49.9924 60.5082 49.7462 60.8378 49.5682C61.1673 49.3902 61.531 49.2576 61.9287 49.1705C62.3302 49.0795 62.7336 49.0076 63.1389 48.9545C63.6692 48.8864 64.0991 48.8352 64.4287 48.8011C64.762 48.7633 65.0045 48.7008 65.156 48.6136C65.3113 48.5265 65.3889 48.375 65.3889 48.1591V48.1136C65.3889 47.553 65.2355 47.1174 64.9287 46.8068C64.6257 46.4962 64.1654 46.3409 63.548 46.3409C62.9079 46.3409 62.406 46.4811 62.0423 46.7614C61.6787 47.0417 61.423 47.3409 61.2753 47.6591L60.0026 47.2045C60.2298 46.6742 60.5329 46.2614 60.9116 45.9659C61.2942 45.6667 61.7109 45.4583 62.1616 45.3409C62.6162 45.2197 63.0632 45.1591 63.5026 45.1591C63.7829 45.1591 64.1048 45.1932 64.4685 45.2614C64.8359 45.3258 65.1901 45.4602 65.531 45.6648C65.8757 45.8693 66.1616 46.178 66.3889 46.5909C66.6162 47.0038 66.7298 47.5568 66.7298 48.25V54H65.3889V52.8182H65.3207C65.2298 53.0076 65.0783 53.2102 64.8662 53.4261C64.6541 53.642 64.3719 53.8258 64.0196 53.9773C63.6673 54.1288 63.2374 54.2045 62.7298 54.2045ZM62.9344 53C63.4647 53 63.9116 52.8958 64.2753 52.6875C64.6427 52.4792 64.9192 52.2102 65.1048 51.8807C65.2942 51.5511 65.3889 51.2045 65.3889 50.8409V49.6136C65.3321 49.6818 65.2071 49.7443 65.0139 49.8011C64.8245 49.8542 64.6048 49.9015 64.3548 49.9432C64.1086 49.9811 63.8681 50.0152 63.6332 50.0455C63.4022 50.072 63.2147 50.0947 63.0707 50.1136C62.7223 50.1591 62.3965 50.233 62.0935 50.3352C61.7942 50.4337 61.5518 50.5833 61.3662 50.7841C61.1844 50.9811 61.0935 51.25 61.0935 51.5909C61.0935 52.0568 61.2658 52.4091 61.6105 52.6477C61.959 52.8826 62.4003 53 62.9344 53ZM72.8727 45.2727V46.4091H68.35V45.2727H72.8727ZM69.6682 43.1818H71.0091V51.5C71.0091 51.8788 71.064 52.1629 71.1739 52.3523C71.2875 52.5379 71.4314 52.6629 71.6057 52.7273C71.7837 52.7879 71.9712 52.8182 72.1682 52.8182C72.3159 52.8182 72.4371 52.8106 72.5318 52.7955C72.6265 52.7765 72.7023 52.7614 72.7591 52.75L73.0318 53.9545C72.9409 53.9886 72.814 54.0227 72.6511 54.0568C72.4883 54.0947 72.2818 54.1136 72.0318 54.1136C71.653 54.1136 71.2818 54.0322 70.9182 53.8693C70.5583 53.7064 70.2591 53.4583 70.0205 53.125C69.7856 52.7917 69.6682 52.3712 69.6682 51.8636V43.1818ZM78.2415 54.1818C77.4233 54.1818 76.7188 53.9886 76.1278 53.6023C75.5369 53.2159 75.0824 52.6837 74.7642 52.0057C74.446 51.3277 74.2869 50.553 74.2869 49.6818C74.2869 48.7955 74.4498 48.0133 74.7756 47.3352C75.1051 46.6534 75.5634 46.1212 76.1506 45.7386C76.7415 45.3523 77.4309 45.1591 78.2188 45.1591C78.8324 45.1591 79.3854 45.2727 79.8778 45.5C80.3703 45.7273 80.7737 46.0455 81.0881 46.4545C81.4025 46.8636 81.5975 47.3409 81.6733 47.8864H80.3324C80.2301 47.4886 80.0028 47.1364 79.6506 46.8295C79.3021 46.5189 78.8324 46.3636 78.2415 46.3636C77.7188 46.3636 77.2604 46.5 76.8665 46.7727C76.4763 47.0417 76.1714 47.4223 75.9517 47.9148C75.7358 48.4034 75.6278 48.9773 75.6278 49.6364C75.6278 50.3106 75.7339 50.8977 75.946 51.3977C76.1619 51.8977 76.465 52.286 76.8551 52.5625C77.2491 52.839 77.7112 52.9773 78.2415 52.9773C78.59 52.9773 78.9062 52.9167 79.1903 52.7955C79.4744 52.6742 79.715 52.5 79.9119 52.2727C80.1089 52.0455 80.2491 51.7727 80.3324 51.4545H81.6733C81.5975 51.9697 81.41 52.4337 81.1108 52.8466C80.8153 53.2557 80.4233 53.5814 79.9347 53.8239C79.4498 54.0625 78.8854 54.1818 78.2415 54.1818ZM84.8744 48.75V54H83.5335V42.3636H84.8744V46.6364H84.9881C85.1926 46.1856 85.4994 45.8277 85.9085 45.5625C86.3214 45.2936 86.8706 45.1591 87.5563 45.1591C88.1509 45.1591 88.6718 45.2784 89.1188 45.517C89.5657 45.7519 89.9123 46.1136 90.1585 46.6023C90.4085 47.0871 90.5335 47.7045 90.5335 48.4545V54H89.1926V48.5455C89.1926 47.8523 89.0127 47.3163 88.6528 46.9375C88.2968 46.5549 87.8025 46.3636 87.1699 46.3636C86.7305 46.3636 86.3366 46.4564 85.9881 46.642C85.6434 46.8277 85.3706 47.0985 85.1699 47.4545C84.9729 47.8106 84.8744 48.2424 84.8744 48.75ZM94.2276 42.3636V54H92.8866V42.3636H94.2276ZM96.5835 54V45.2727H97.9244V54H96.5835ZM97.2653 43.8182C97.004 43.8182 96.7786 43.7292 96.5892 43.5511C96.4036 43.3731 96.3108 43.1591 96.3108 42.9091C96.3108 42.6591 96.4036 42.4451 96.5892 42.267C96.7786 42.089 97.004 42 97.2653 42C97.5267 42 97.7502 42.089 97.9358 42.267C98.1252 42.4451 98.2199 42.6591 98.2199 42.9091C98.2199 43.1591 98.1252 43.3731 97.9358 43.5511C97.7502 43.7292 97.5267 43.8182 97.2653 43.8182ZM106.462 47.2273L105.258 47.5682C105.182 47.3674 105.07 47.1723 104.922 46.983C104.779 46.7898 104.582 46.6307 104.332 46.5057C104.082 46.3807 103.761 46.3182 103.371 46.3182C102.837 46.3182 102.392 46.4413 102.036 46.6875C101.684 46.9299 101.508 47.2386 101.508 47.6136C101.508 47.947 101.629 48.2102 101.871 48.4034C102.114 48.5966 102.493 48.7576 103.008 48.8864L104.303 49.2045C105.083 49.3939 105.665 49.6837 106.047 50.0739C106.43 50.4602 106.621 50.9583 106.621 51.5682C106.621 52.0682 106.477 52.5152 106.189 52.9091C105.905 53.303 105.508 53.6136 104.996 53.8409C104.485 54.0682 103.89 54.1818 103.212 54.1818C102.322 54.1818 101.585 53.9886 101.002 53.6023C100.419 53.2159 100.049 52.6515 99.894 51.9091L101.167 51.5909C101.288 52.0606 101.517 52.4129 101.854 52.6477C102.195 52.8826 102.64 53 103.189 53C103.814 53 104.311 52.8674 104.678 52.6023C105.049 52.3333 105.235 52.0114 105.235 51.6364C105.235 51.3333 105.129 51.0795 104.917 50.875C104.705 50.6667 104.379 50.5114 103.939 50.4091L102.485 50.0682C101.686 49.8788 101.099 49.5852 100.724 49.1875C100.352 48.786 100.167 48.2841 100.167 47.6818C100.167 47.1894 100.305 46.7538 100.582 46.375C100.862 45.9962 101.243 45.6989 101.724 45.483C102.208 45.267 102.758 45.1591 103.371 45.1591C104.235 45.1591 104.913 45.3485 105.405 45.7273C105.902 46.1061 106.254 46.6061 106.462 47.2273ZM112.335 45.2727V46.4091H107.812V45.2727H112.335ZM109.131 43.1818H110.472V51.5C110.472 51.8788 110.527 52.1629 110.636 52.3523C110.75 52.5379 110.894 52.6629 111.068 52.7273C111.246 52.7879 111.434 52.8182 111.631 52.8182C111.778 52.8182 111.9 52.8106 111.994 52.7955C112.089 52.7765 112.165 52.7614 112.222 52.75L112.494 53.9545C112.403 53.9886 112.277 54.0227 112.114 54.0568C111.951 54.0947 111.744 54.1136 111.494 54.1136C111.116 54.1136 110.744 54.0322 110.381 53.8693C110.021 53.7064 109.722 53.4583 109.483 53.125C109.248 52.7917 109.131 52.3712 109.131 51.8636V43.1818ZM120.278 47.2273L119.073 47.5682C118.998 47.3674 118.886 47.1723 118.738 46.983C118.594 46.7898 118.397 46.6307 118.147 46.5057C117.897 46.3807 117.577 46.3182 117.187 46.3182C116.653 46.3182 116.208 46.4413 115.852 46.6875C115.499 46.9299 115.323 47.2386 115.323 47.6136C115.323 47.947 115.445 48.2102 115.687 48.4034C115.929 48.5966 116.308 48.7576 116.823 48.8864L118.119 49.2045C118.899 49.3939 119.48 49.6837 119.863 50.0739C120.246 50.4602 120.437 50.9583 120.437 51.5682C120.437 52.0682 120.293 52.5152 120.005 52.9091C119.721 53.303 119.323 53.6136 118.812 53.8409C118.301 54.0682 117.706 54.1818 117.028 54.1818C116.138 54.1818 115.401 53.9886 114.818 53.6023C114.234 53.2159 113.865 52.6515 113.71 51.9091L114.982 51.5909C115.104 52.0606 115.333 52.4129 115.67 52.6477C116.011 52.8826 116.456 53 117.005 53C117.63 53 118.126 52.8674 118.494 52.6023C118.865 52.3333 119.051 52.0114 119.051 51.6364C119.051 51.3333 118.945 51.0795 118.732 50.875C118.52 50.6667 118.195 50.5114 117.755 50.4091L116.301 50.0682C115.501 49.8788 114.914 49.5852 114.539 49.1875C114.168 48.786 113.982 48.2841 113.982 47.6818C113.982 47.1894 114.121 46.7538 114.397 46.375C114.677 45.9962 115.058 45.6989 115.539 45.483C116.024 45.267 116.573 45.1591 117.187 45.1591C118.051 45.1591 118.729 45.3485 119.221 45.7273C119.717 46.1061 120.07 46.6061 120.278 47.2273ZM126.755 54V45.2727H128.096V54H126.755ZM127.437 43.8182C127.176 43.8182 126.95 43.7292 126.761 43.5511C126.575 43.3731 126.483 43.1591 126.483 42.9091C126.483 42.6591 126.575 42.4451 126.761 42.267C126.95 42.089 127.176 42 127.437 42C127.699 42 127.922 42.089 128.108 42.267C128.297 42.4451 128.392 42.6591 128.392 42.9091C128.392 43.1591 128.297 43.3731 128.108 43.5511C127.922 43.7292 127.699 43.8182 127.437 43.8182ZM131.793 48.75V54H130.452V45.2727H131.748V46.6364H131.861C132.066 46.1932 132.377 45.8371 132.793 45.5682C133.21 45.2955 133.748 45.1591 134.407 45.1591C134.998 45.1591 135.515 45.2803 135.958 45.5227C136.401 45.7614 136.746 46.125 136.992 46.6136C137.238 47.0985 137.361 47.7121 137.361 48.4545V54H136.02V48.5455C136.02 47.8598 135.842 47.3258 135.486 46.9432C135.13 46.5568 134.642 46.3636 134.02 46.3636C133.592 46.3636 133.21 46.4564 132.873 46.642C132.539 46.8277 132.276 47.0985 132.083 47.4545C131.89 47.8106 131.793 48.2424 131.793 48.75ZM143.257 54.1818C142.439 54.1818 141.734 53.9886 141.143 53.6023C140.553 53.2159 140.098 52.6837 139.78 52.0057C139.462 51.3277 139.303 50.553 139.303 49.6818C139.303 48.7955 139.465 48.0133 139.791 47.3352C140.121 46.6534 140.579 46.1212 141.166 45.7386C141.757 45.3523 142.446 45.1591 143.234 45.1591C143.848 45.1591 144.401 45.2727 144.893 45.5C145.386 45.7273 145.789 46.0455 146.104 46.4545C146.418 46.8636 146.613 47.3409 146.689 47.8864H145.348C145.246 47.4886 145.018 47.1364 144.666 46.8295C144.318 46.5189 143.848 46.3636 143.257 46.3636C142.734 46.3636 142.276 46.5 141.882 46.7727C141.492 47.0417 141.187 47.4223 140.967 47.9148C140.751 48.4034 140.643 48.9773 140.643 49.6364C140.643 50.3106 140.75 50.8977 140.962 51.3977C141.178 51.8977 141.481 52.286 141.871 52.5625C142.265 52.839 142.727 52.9773 143.257 52.9773C143.606 52.9773 143.922 52.9167 144.206 52.7955C144.49 52.6742 144.731 52.5 144.928 52.2727C145.125 52.0455 145.265 51.7727 145.348 51.4545H146.689C146.613 51.9697 146.426 52.4337 146.126 52.8466C145.831 53.2557 145.439 53.5814 144.95 53.8239C144.465 54.0625 143.901 54.1818 143.257 54.1818ZM149.89 42.3636V54H148.549V42.3636H149.89ZM157.746 50.4318V45.2727H159.087V54H157.746V52.5227H157.655C157.451 52.9659 157.132 53.3428 156.701 53.6534C156.269 53.9602 155.723 54.1136 155.064 54.1136C154.519 54.1136 154.034 53.9943 153.61 53.7557C153.185 53.5133 152.852 53.1496 152.61 52.6648C152.367 52.1761 152.246 51.5606 152.246 50.8182V45.2727H153.587V50.7273C153.587 51.3636 153.765 51.8712 154.121 52.25C154.481 52.6288 154.939 52.8182 155.496 52.8182C155.829 52.8182 156.168 52.733 156.513 52.5625C156.862 52.392 157.153 52.1307 157.388 51.7784C157.627 51.4261 157.746 50.9773 157.746 50.4318ZM164.738 54.1818C164.011 54.1818 163.369 53.9981 162.812 53.6307C162.255 53.2595 161.82 52.7367 161.505 52.0625C161.191 51.3845 161.034 50.5833 161.034 49.6591C161.034 48.7424 161.191 47.947 161.505 47.2727C161.82 46.5985 162.257 46.0777 162.818 45.7102C163.379 45.3428 164.026 45.1591 164.761 45.1591C165.329 45.1591 165.778 45.2538 166.108 45.4432C166.441 45.6288 166.695 45.8409 166.869 46.0795C167.047 46.3144 167.185 46.5076 167.284 46.6591H167.397V42.3636H168.738V54H167.443V52.6591H167.284C167.185 52.8182 167.045 53.0189 166.863 53.2614C166.682 53.5 166.422 53.714 166.085 53.9034C165.748 54.089 165.299 54.1818 164.738 54.1818ZM164.92 52.9773C165.458 52.9773 165.913 52.8371 166.284 52.5568C166.655 52.2727 166.937 51.8807 167.13 51.3807C167.324 50.8769 167.42 50.2955 167.42 49.6364C167.42 48.9848 167.325 48.4148 167.136 47.9261C166.947 47.4337 166.666 47.0511 166.295 46.7784C165.924 46.5019 165.466 46.3636 164.92 46.3636C164.352 46.3636 163.879 46.5095 163.5 46.8011C163.125 47.089 162.843 47.4811 162.653 47.9773C162.468 48.4697 162.375 49.0227 162.375 49.6364C162.375 50.2576 162.469 50.822 162.659 51.3295C162.852 51.8333 163.136 52.2348 163.511 52.5341C163.89 52.8295 164.36 52.9773 164.92 52.9773ZM174.939 54.1818C174.099 54.1818 173.373 53.9962 172.763 53.625C172.157 53.25 171.689 52.7273 171.36 52.0568C171.034 51.3826 170.871 50.5985 170.871 49.7045C170.871 48.8106 171.034 48.0227 171.36 47.3409C171.689 46.6553 172.148 46.1212 172.735 45.7386C173.326 45.3523 174.015 45.1591 174.803 45.1591C175.258 45.1591 175.707 45.2348 176.15 45.3864C176.593 45.5379 176.996 45.7841 177.36 46.125C177.724 46.4621 178.013 46.9091 178.229 47.4659C178.445 48.0227 178.553 48.7083 178.553 49.5227V50.0909H171.826V48.9318H177.189C177.189 48.4394 177.091 48 176.894 47.6136C176.701 47.2273 176.424 46.9223 176.064 46.6989C175.708 46.4754 175.288 46.3636 174.803 46.3636C174.269 46.3636 173.807 46.4962 173.417 46.7614C173.03 47.0227 172.733 47.3636 172.525 47.7841C172.316 48.2045 172.212 48.6553 172.212 49.1364V49.9091C172.212 50.5682 172.326 51.1269 172.553 51.5852C172.784 52.0398 173.104 52.3864 173.513 52.625C173.922 52.8598 174.398 52.9773 174.939 52.9773C175.292 52.9773 175.61 52.928 175.894 52.8295C176.182 52.7273 176.43 52.5758 176.638 52.375C176.847 52.1705 177.008 51.9167 177.121 51.6136L178.417 51.9773C178.28 52.4167 178.051 52.803 177.729 53.1364C177.407 53.4659 177.01 53.7235 176.536 53.9091C176.063 54.0909 175.53 54.1818 174.939 54.1818ZM183.788 54.1818C183.061 54.1818 182.419 53.9981 181.862 53.6307C181.305 53.2595 180.87 52.7367 180.555 52.0625C180.241 51.3845 180.084 50.5833 180.084 49.6591C180.084 48.7424 180.241 47.947 180.555 47.2727C180.87 46.5985 181.307 46.0777 181.868 45.7102C182.429 45.3428 183.076 45.1591 183.811 45.1591C184.379 45.1591 184.828 45.2538 185.158 45.4432C185.491 45.6288 185.745 45.8409 185.919 46.0795C186.097 46.3144 186.235 46.5076 186.334 46.6591H186.447V42.3636H187.788V54H186.493V52.6591H186.334C186.235 52.8182 186.095 53.0189 185.913 53.2614C185.732 53.5 185.472 53.714 185.135 53.9034C184.798 54.089 184.349 54.1818 183.788 54.1818ZM183.97 52.9773C184.508 52.9773 184.963 52.8371 185.334 52.5568C185.705 52.2727 185.987 51.8807 186.18 51.3807C186.374 50.8769 186.47 50.2955 186.47 49.6364C186.47 48.9848 186.375 48.4148 186.186 47.9261C185.997 47.4337 185.716 47.0511 185.345 46.7784C184.974 46.5019 184.516 46.3636 183.97 46.3636C183.402 46.3636 182.929 46.5095 182.55 46.8011C182.175 47.089 181.893 47.4811 181.703 47.9773C181.518 48.4697 181.425 49.0227 181.425 49.6364C181.425 50.2576 181.519 50.822 181.709 51.3295C181.902 51.8333 182.186 52.2348 182.561 52.5341C182.94 52.8295 183.41 52.9773 183.97 52.9773Z" fill="#272D37"/>
<rect y="74" width="20" height="20" rx="10" fill="#437EF7"/>
<path d="M14 82L8.85355 87.1464C8.65829 87.3417 8.34171 87.3417 8.14645 87.1464L6 85" stroke="white" stroke-width="1.67" stroke-linecap="round"/>
<path d="M33.8864 90H32.4091L36.6818 78.3636H38.1364L42.4091 90H40.9318L37.4545 80.2045H37.3636L33.8864 90ZM34.4318 85.4545H40.3864V86.7045H34.4318V85.4545ZM47.4852 90.1818C46.667 90.1818 45.9625 89.9886 45.3716 89.6023C44.7807 89.2159 44.3261 88.6837 44.008 88.0057C43.6898 87.3277 43.5307 86.553 43.5307 85.6818C43.5307 84.7955 43.6936 84.0133 44.0193 83.3352C44.3489 82.6534 44.8072 82.1212 45.3943 81.7386C45.9852 81.3523 46.6746 81.1591 47.4625 81.1591C48.0761 81.1591 48.6292 81.2727 49.1216 81.5C49.614 81.7273 50.0174 82.0455 50.3318 82.4545C50.6462 82.8636 50.8413 83.3409 50.917 83.8864H49.5761C49.4739 83.4886 49.2466 83.1364 48.8943 82.8295C48.5458 82.5189 48.0761 82.3636 47.4852 82.3636C46.9625 82.3636 46.5042 82.5 46.1102 82.7727C45.7201 83.0417 45.4152 83.4223 45.1955 83.9148C44.9795 84.4034 44.8716 84.9773 44.8716 85.6364C44.8716 86.3106 44.9777 86.8977 45.1898 87.3977C45.4057 87.8977 45.7087 88.286 46.0989 88.5625C46.4928 88.839 46.9549 88.9773 47.4852 88.9773C47.8337 88.9773 48.15 88.9167 48.4341 88.7955C48.7182 88.6742 48.9587 88.5 49.1557 88.2727C49.3527 88.0455 49.4928 87.7727 49.5761 87.4545H50.917C50.8413 87.9697 50.6538 88.4337 50.3545 88.8466C50.0591 89.2557 49.667 89.5814 49.1784 89.8239C48.6936 90.0625 48.1292 90.1818 47.4852 90.1818ZM56.3227 90.1818C55.5045 90.1818 54.8 89.9886 54.2091 89.6023C53.6182 89.2159 53.1636 88.6837 52.8455 88.0057C52.5273 87.3277 52.3682 86.553 52.3682 85.6818C52.3682 84.7955 52.5311 84.0133 52.8568 83.3352C53.1864 82.6534 53.6447 82.1212 54.2318 81.7386C54.8227 81.3523 55.5121 81.1591 56.3 81.1591C56.9136 81.1591 57.4667 81.2727 57.9591 81.5C58.4515 81.7273 58.8549 82.0455 59.1693 82.4545C59.4837 82.8636 59.6788 83.3409 59.7545 83.8864H58.4136C58.3114 83.4886 58.0841 83.1364 57.7318 82.8295C57.3833 82.5189 56.9136 82.3636 56.3227 82.3636C55.8 82.3636 55.3417 82.5 54.9477 82.7727C54.5576 83.0417 54.2527 83.4223 54.033 83.9148C53.817 84.4034 53.7091 84.9773 53.7091 85.6364C53.7091 86.3106 53.8152 86.8977 54.0273 87.3977C54.2432 87.8977 54.5462 88.286 54.9364 88.5625C55.3303 88.839 55.7924 88.9773 56.3227 88.9773C56.6712 88.9773 56.9875 88.9167 57.2716 88.7955C57.5557 88.6742 57.7962 88.5 57.9932 88.2727C58.1902 88.0455 58.3303 87.7727 58.4136 87.4545H59.7545C59.6788 87.9697 59.4913 88.4337 59.192 88.8466C58.8966 89.2557 58.5045 89.5814 58.0159 89.8239C57.5311 90.0625 56.9667 90.1818 56.3227 90.1818ZM65.2739 90.1818C64.433 90.1818 63.7076 89.9962 63.0977 89.625C62.4917 89.25 62.0239 88.7273 61.6943 88.0568C61.3686 87.3826 61.2057 86.5985 61.2057 85.7045C61.2057 84.8106 61.3686 84.0227 61.6943 83.3409C62.0239 82.6553 62.4822 82.1212 63.0693 81.7386C63.6602 81.3523 64.3496 81.1591 65.1375 81.1591C65.592 81.1591 66.0409 81.2348 66.4841 81.3864C66.9273 81.5379 67.3307 81.7841 67.6943 82.125C68.058 82.4621 68.3477 82.9091 68.5636 83.4659C68.7795 84.0227 68.8875 84.7083 68.8875 85.5227V86.0909H62.1602V84.9318H67.5239C67.5239 84.4394 67.4254 84 67.2284 83.6136C67.0352 83.2273 66.7587 82.9223 66.3989 82.6989C66.0428 82.4754 65.6223 82.3636 65.1375 82.3636C64.6034 82.3636 64.1413 82.4962 63.7511 82.7614C63.3648 83.0227 63.0674 83.3636 62.8591 83.7841C62.6508 84.2045 62.5466 84.6553 62.5466 85.1364V85.9091C62.5466 86.5682 62.6602 87.1269 62.8875 87.5852C63.1186 88.0398 63.4386 88.3864 63.8477 88.625C64.2568 88.8598 64.7322 88.9773 65.2739 88.9773C65.6261 88.9773 65.9443 88.928 66.2284 88.8295C66.5163 88.7273 66.7644 88.5758 66.9727 88.375C67.1811 88.1705 67.342 87.9167 67.4557 87.6136L68.7511 87.9773C68.6148 88.4167 68.3856 88.803 68.0636 89.1364C67.7417 89.4659 67.3439 89.7235 66.8705 89.9091C66.397 90.0909 65.8648 90.1818 65.2739 90.1818ZM77.0091 83.2273L75.8045 83.5682C75.7288 83.3674 75.617 83.1723 75.4693 82.983C75.3254 82.7898 75.1284 82.6307 74.8784 82.5057C74.6284 82.3807 74.3083 82.3182 73.9182 82.3182C73.3841 82.3182 72.939 82.4413 72.583 82.6875C72.2307 82.9299 72.0545 83.2386 72.0545 83.6136C72.0545 83.947 72.1758 84.2102 72.4182 84.4034C72.6606 84.5966 73.0394 84.7576 73.5545 84.8864L74.85 85.2045C75.6303 85.3939 76.2117 85.6837 76.5943 86.0739C76.9769 86.4602 77.1682 86.9583 77.1682 87.5682C77.1682 88.0682 77.0242 88.5152 76.7364 88.9091C76.4523 89.303 76.0545 89.6136 75.5432 89.8409C75.0318 90.0682 74.4371 90.1818 73.7591 90.1818C72.8689 90.1818 72.1322 89.9886 71.5489 89.6023C70.9655 89.2159 70.5962 88.6515 70.4409 87.9091L71.7136 87.5909C71.8348 88.0606 72.064 88.4129 72.4011 88.6477C72.742 88.8826 73.1871 89 73.7364 89C74.3614 89 74.8576 88.8674 75.225 88.6023C75.5962 88.3333 75.7818 88.0114 75.7818 87.6364C75.7818 87.3333 75.6758 87.0795 75.4636 86.875C75.2515 86.6667 74.9258 86.5114 74.4864 86.4091L73.0318 86.0682C72.2326 85.8788 71.6455 85.5852 71.2705 85.1875C70.8992 84.786 70.7136 84.2841 70.7136 83.6818C70.7136 83.1894 70.8519 82.7538 71.1284 82.375C71.4087 81.9962 71.7894 81.6989 72.2705 81.483C72.7553 81.267 73.3045 81.1591 73.9182 81.1591C74.7818 81.1591 75.4598 81.3485 75.9523 81.7273C76.4485 82.1061 76.8008 82.6061 77.0091 83.2273ZM85.2685 83.2273L84.0639 83.5682C83.9882 83.3674 83.8764 83.1723 83.7287 82.983C83.5848 82.7898 83.3878 82.6307 83.1378 82.5057C82.8878 82.3807 82.5677 82.3182 82.1776 82.3182C81.6435 82.3182 81.1984 82.4413 80.8423 82.6875C80.4901 82.9299 80.3139 83.2386 80.3139 83.6136C80.3139 83.947 80.4351 84.2102 80.6776 84.4034C80.92 84.5966 81.2988 84.7576 81.8139 84.8864L83.1094 85.2045C83.8897 85.3939 84.4711 85.6837 84.8537 86.0739C85.2363 86.4602 85.4276 86.9583 85.4276 87.5682C85.4276 88.0682 85.2836 88.5152 84.9957 88.9091C84.7116 89.303 84.3139 89.6136 83.8026 89.8409C83.2912 90.0682 82.6965 90.1818 82.0185 90.1818C81.1283 90.1818 80.3916 89.9886 79.8082 89.6023C79.2249 89.2159 78.8556 88.6515 78.7003 87.9091L79.973 87.5909C80.0942 88.0606 80.3234 88.4129 80.6605 88.6477C81.0014 88.8826 81.4465 89 81.9957 89C82.6207 89 83.117 88.8674 83.4844 88.6023C83.8556 88.3333 84.0412 88.0114 84.0412 87.6364C84.0412 87.3333 83.9351 87.0795 83.723 86.875C83.5109 86.6667 83.1851 86.5114 82.7457 86.4091L81.2912 86.0682C80.492 85.8788 79.9048 85.5852 79.5298 85.1875C79.1586 84.786 78.973 84.2841 78.973 83.6818C78.973 83.1894 79.1113 82.7538 79.3878 82.375C79.6681 81.9962 80.0488 81.6989 80.5298 81.483C81.0147 81.267 81.5639 81.1591 82.1776 81.1591C83.0412 81.1591 83.7192 81.3485 84.2116 81.7273C84.7079 82.1061 85.0601 82.6061 85.2685 83.2273ZM95.5415 81.2727V82.4091H91.0187V81.2727H95.5415ZM92.3369 79.1818H93.6778V87.5C93.6778 87.8788 93.7328 88.1629 93.8426 88.3523C93.9562 88.5379 94.1002 88.6629 94.2744 88.7273C94.4525 88.7879 94.64 88.8182 94.8369 88.8182C94.9847 88.8182 95.1059 88.8106 95.2006 88.7955C95.2953 88.7765 95.371 88.7614 95.4278 88.75L95.7006 89.9545C95.6097 89.9886 95.4828 90.0227 95.3199 90.0568C95.157 90.0947 94.9506 90.1136 94.7006 90.1136C94.3218 90.1136 93.9506 90.0322 93.5869 89.8693C93.2271 89.7064 92.9278 89.4583 92.6892 89.125C92.4544 88.7917 92.3369 88.3712 92.3369 87.8636V79.1818ZM100.91 90.1818C100.122 90.1818 99.4311 89.9943 98.8364 89.6193C98.2455 89.2443 97.7833 88.7197 97.45 88.0455C97.1205 87.3712 96.9557 86.5833 96.9557 85.6818C96.9557 84.7727 97.1205 83.9792 97.45 83.3011C97.7833 82.6231 98.2455 82.0966 98.8364 81.7216C99.4311 81.3466 100.122 81.1591 100.91 81.1591C101.698 81.1591 102.387 81.3466 102.978 81.7216C103.573 82.0966 104.035 82.6231 104.365 83.3011C104.698 83.9792 104.865 84.7727 104.865 85.6818C104.865 86.5833 104.698 87.3712 104.365 88.0455C104.035 88.7197 103.573 89.2443 102.978 89.6193C102.387 89.9943 101.698 90.1818 100.91 90.1818ZM100.91 88.9773C101.509 88.9773 102.001 88.8239 102.387 88.517C102.774 88.2102 103.06 87.8068 103.245 87.3068C103.431 86.8068 103.524 86.2652 103.524 85.6818C103.524 85.0985 103.431 84.5549 103.245 84.0511C103.06 83.5473 102.774 83.1402 102.387 82.8295C102.001 82.5189 101.509 82.3636 100.91 82.3636C100.312 82.3636 99.8193 82.5189 99.433 82.8295C99.0466 83.1402 98.7606 83.5473 98.575 84.0511C98.3894 84.5549 98.2966 85.0985 98.2966 85.6818C98.2966 86.2652 98.3894 86.8068 98.575 87.3068C98.7606 87.8068 99.0466 88.2102 99.433 88.517C99.8193 88.8239 100.312 88.9773 100.91 88.9773ZM113.78 90.2045C113.227 90.2045 112.725 90.1004 112.274 89.892C111.823 89.6799 111.465 89.375 111.2 88.9773C110.935 88.5758 110.803 88.0909 110.803 87.5227C110.803 87.0227 110.901 86.6174 111.098 86.3068C111.295 85.9924 111.558 85.7462 111.888 85.5682C112.217 85.3902 112.581 85.2576 112.979 85.1705C113.38 85.0795 113.784 85.0076 114.189 84.9545C114.719 84.8864 115.149 84.8352 115.479 84.8011C115.812 84.7633 116.054 84.7008 116.206 84.6136C116.361 84.5265 116.439 84.375 116.439 84.1591V84.1136C116.439 83.553 116.286 83.1174 115.979 82.8068C115.676 82.4962 115.215 82.3409 114.598 82.3409C113.958 82.3409 113.456 82.4811 113.092 82.7614C112.729 83.0417 112.473 83.3409 112.325 83.6591L111.053 83.2045C111.28 82.6742 111.583 82.2614 111.962 81.9659C112.344 81.6667 112.761 81.4583 113.212 81.3409C113.666 81.2197 114.113 81.1591 114.553 81.1591C114.833 81.1591 115.155 81.1932 115.518 81.2614C115.886 81.3258 116.24 81.4602 116.581 81.6648C116.926 81.8693 117.212 82.178 117.439 82.5909C117.666 83.0038 117.78 83.5568 117.78 84.25V90H116.439V88.8182H116.371C116.28 89.0076 116.128 89.2102 115.916 89.4261C115.704 89.642 115.422 89.8258 115.07 89.9773C114.717 90.1288 114.287 90.2045 113.78 90.2045ZM113.984 89C114.515 89 114.962 88.8958 115.325 88.6875C115.693 88.4792 115.969 88.2102 116.155 87.8807C116.344 87.5511 116.439 87.2045 116.439 86.8409V85.6136C116.382 85.6818 116.257 85.7443 116.064 85.8011C115.875 85.8542 115.655 85.9015 115.405 85.9432C115.159 85.9811 114.918 86.0152 114.683 86.0455C114.452 86.072 114.265 86.0947 114.121 86.1136C113.772 86.1591 113.446 86.233 113.143 86.3352C112.844 86.4337 112.602 86.5833 112.416 86.7841C112.234 86.9811 112.143 87.25 112.143 87.5909C112.143 88.0568 112.316 88.4091 112.661 88.6477C113.009 88.8826 113.45 89 113.984 89ZM121.468 78.3636V90H120.127V78.3636H121.468ZM125.165 78.3636V90H123.824V78.3636H125.165ZM135.807 81.2727V82.4091H131.103V81.2727H135.807ZM132.512 90V80.0682C132.512 79.5682 132.629 79.1515 132.864 78.8182C133.099 78.4848 133.404 78.2348 133.779 78.0682C134.154 77.9015 134.55 77.8182 134.966 77.8182C135.296 77.8182 135.565 77.8447 135.773 77.8977C135.982 77.9508 136.137 78 136.239 78.0455L135.853 79.2045C135.785 79.1818 135.69 79.1534 135.569 79.1193C135.451 79.0852 135.296 79.0682 135.103 79.0682C134.66 79.0682 134.34 79.1799 134.143 79.4034C133.949 79.6269 133.853 79.9545 133.853 80.3864V90H132.512ZM140.886 90.1818C140.045 90.1818 139.32 89.9962 138.71 89.625C138.104 89.25 137.636 88.7273 137.307 88.0568C136.981 87.3826 136.818 86.5985 136.818 85.7045C136.818 84.8106 136.981 84.0227 137.307 83.3409C137.636 82.6553 138.095 82.1212 138.682 81.7386C139.273 81.3523 139.962 81.1591 140.75 81.1591C141.205 81.1591 141.653 81.2348 142.097 81.3864C142.54 81.5379 142.943 81.7841 143.307 82.125C143.67 82.4621 143.96 82.9091 144.176 83.4659C144.392 84.0227 144.5 84.7083 144.5 85.5227V86.0909H137.773V84.9318H143.136C143.136 84.4394 143.038 84 142.841 83.6136C142.648 83.2273 142.371 82.9223 142.011 82.6989C141.655 82.4754 141.235 82.3636 140.75 82.3636C140.216 82.3636 139.754 82.4962 139.364 82.7614C138.977 83.0227 138.68 83.3636 138.472 83.7841C138.263 84.2045 138.159 84.6553 138.159 85.1364V85.9091C138.159 86.5682 138.273 87.1269 138.5 87.5852C138.731 88.0398 139.051 88.3864 139.46 88.625C139.869 88.8598 140.345 88.9773 140.886 88.9773C141.239 88.9773 141.557 88.928 141.841 88.8295C142.129 88.7273 142.377 88.5758 142.585 88.375C142.794 88.1705 142.955 87.9167 143.068 87.6136L144.364 87.9773C144.227 88.4167 143.998 88.803 143.676 89.1364C143.354 89.4659 142.956 89.7235 142.483 89.9091C142.009 90.0909 141.477 90.1818 140.886 90.1818ZM149.008 90.2045C148.455 90.2045 147.953 90.1004 147.502 89.892C147.052 89.6799 146.694 89.375 146.428 88.9773C146.163 88.5758 146.031 88.0909 146.031 87.5227C146.031 87.0227 146.129 86.6174 146.326 86.3068C146.523 85.9924 146.786 85.7462 147.116 85.5682C147.445 85.3902 147.809 85.2576 148.207 85.1705C148.608 85.0795 149.012 85.0076 149.417 84.9545C149.947 84.8864 150.377 84.8352 150.707 84.8011C151.04 84.7633 151.283 84.7008 151.434 84.6136C151.589 84.5265 151.667 84.375 151.667 84.1591V84.1136C151.667 83.553 151.514 83.1174 151.207 82.8068C150.904 82.4962 150.444 82.3409 149.826 82.3409C149.186 82.3409 148.684 82.4811 148.32 82.7614C147.957 83.0417 147.701 83.3409 147.553 83.6591L146.281 83.2045C146.508 82.6742 146.811 82.2614 147.19 81.9659C147.572 81.6667 147.989 81.4583 148.44 81.3409C148.894 81.2197 149.341 81.1591 149.781 81.1591C150.061 81.1591 150.383 81.1932 150.747 81.2614C151.114 81.3258 151.468 81.4602 151.809 81.6648C152.154 81.8693 152.44 82.178 152.667 82.5909C152.894 83.0038 153.008 83.5568 153.008 84.25V90H151.667V88.8182H151.599C151.508 89.0076 151.356 89.2102 151.144 89.4261C150.932 89.642 150.65 89.8258 150.298 89.9773C149.945 90.1288 149.516 90.2045 149.008 90.2045ZM149.213 89C149.743 89 150.19 88.8958 150.553 88.6875C150.921 88.4792 151.197 88.2102 151.383 87.8807C151.572 87.5511 151.667 87.2045 151.667 86.8409V85.6136C151.61 85.6818 151.485 85.7443 151.292 85.8011C151.103 85.8542 150.883 85.9015 150.633 85.9432C150.387 85.9811 150.146 86.0152 149.911 86.0455C149.68 86.072 149.493 86.0947 149.349 86.1136C149 86.1591 148.675 86.233 148.372 86.3352C148.072 86.4337 147.83 86.5833 147.644 86.7841C147.463 86.9811 147.372 87.25 147.372 87.5909C147.372 88.0568 147.544 88.4091 147.889 88.6477C148.237 88.8826 148.678 89 149.213 89ZM159.151 81.2727V82.4091H154.628V81.2727H159.151ZM155.946 79.1818H157.287V87.5C157.287 87.8788 157.342 88.1629 157.452 88.3523C157.566 88.5379 157.71 88.6629 157.884 88.7273C158.062 88.7879 158.249 88.8182 158.446 88.8182C158.594 88.8182 158.715 88.8106 158.81 88.7955C158.905 88.7765 158.98 88.7614 159.037 88.75L159.31 89.9545C159.219 89.9886 159.092 90.0227 158.929 90.0568C158.766 90.0947 158.56 90.1136 158.31 90.1136C157.931 90.1136 157.56 90.0322 157.196 89.8693C156.836 89.7064 156.537 89.4583 156.299 89.125C156.064 88.7917 155.946 88.3712 155.946 87.8636V79.1818ZM166.568 86.4318V81.2727H167.909V90H166.568V88.5227H166.477C166.272 88.9659 165.954 89.3428 165.522 89.6534C165.091 89.9602 164.545 90.1136 163.886 90.1136C163.341 90.1136 162.856 89.9943 162.432 89.7557C162.007 89.5133 161.674 89.1496 161.432 88.6648C161.189 88.1761 161.068 87.5606 161.068 86.8182V81.2727H162.409V86.7273C162.409 87.3636 162.587 87.8712 162.943 88.25C163.303 88.6288 163.761 88.8182 164.318 88.8182C164.651 88.8182 164.99 88.733 165.335 88.5625C165.683 88.392 165.975 88.1307 166.21 87.7784C166.449 87.4261 166.568 86.9773 166.568 86.4318ZM170.265 90V81.2727H171.56V82.5909H171.651C171.81 82.1591 172.098 81.8087 172.515 81.5398C172.931 81.2708 173.401 81.1364 173.924 81.1364C174.022 81.1364 174.145 81.1383 174.293 81.142C174.441 81.1458 174.553 81.1515 174.628 81.1591V82.5227C174.583 82.5114 174.479 82.4943 174.316 82.4716C174.157 82.4451 173.988 82.4318 173.81 82.4318C173.386 82.4318 173.007 82.5208 172.674 82.6989C172.344 82.8731 172.083 83.1155 171.89 83.4261C171.7 83.733 171.606 84.0833 171.606 84.4773V90H170.265ZM179.511 90.1818C178.67 90.1818 177.945 89.9962 177.335 89.625C176.729 89.25 176.261 88.7273 175.932 88.0568C175.606 87.3826 175.443 86.5985 175.443 85.7045C175.443 84.8106 175.606 84.0227 175.932 83.3409C176.261 82.6553 176.72 82.1212 177.307 81.7386C177.898 81.3523 178.587 81.1591 179.375 81.1591C179.83 81.1591 180.278 81.2348 180.722 81.3864C181.165 81.5379 181.568 81.7841 181.932 82.125C182.295 82.4621 182.585 82.9091 182.801 83.4659C183.017 84.0227 183.125 84.7083 183.125 85.5227V86.0909H176.398V84.9318H181.761C181.761 84.4394 181.663 84 181.466 83.6136C181.273 83.2273 180.996 82.9223 180.636 82.6989C180.28 82.4754 179.86 82.3636 179.375 82.3636C178.841 82.3636 178.379 82.4962 177.989 82.7614C177.602 83.0227 177.305 83.3636 177.097 83.7841C176.888 84.2045 176.784 84.6553 176.784 85.1364V85.9091C176.784 86.5682 176.898 87.1269 177.125 87.5852C177.356 88.0398 177.676 88.3864 178.085 88.625C178.494 88.8598 178.97 88.9773 179.511 88.9773C179.864 88.9773 180.182 88.928 180.466 88.8295C180.754 88.7273 181.002 88.5758 181.21 88.375C181.419 88.1705 181.58 87.9167 181.693 87.6136L182.989 87.9773C182.852 88.4167 182.623 88.803 182.301 89.1364C181.979 89.4659 181.581 89.7235 181.108 89.9091C180.634 90.0909 180.102 90.1818 179.511 90.1818ZM191.247 83.2273L190.042 83.5682C189.966 83.3674 189.855 83.1723 189.707 82.983C189.563 82.7898 189.366 82.6307 189.116 82.5057C188.866 82.3807 188.546 82.3182 188.156 82.3182C187.622 82.3182 187.177 82.4413 186.82 82.6875C186.468 82.9299 186.292 83.2386 186.292 83.6136C186.292 83.947 186.413 84.2102 186.656 84.4034C186.898 84.5966 187.277 84.7576 187.792 84.8864L189.087 85.2045C189.868 85.3939 190.449 85.6837 190.832 86.0739C191.214 86.4602 191.406 86.9583 191.406 87.5682C191.406 88.0682 191.262 88.5152 190.974 88.9091C190.69 89.303 190.292 89.6136 189.781 89.8409C189.269 90.0682 188.675 90.1818 187.997 90.1818C187.106 90.1818 186.37 89.9886 185.786 89.6023C185.203 89.2159 184.834 88.6515 184.678 87.9091L185.951 87.5909C186.072 88.0606 186.302 88.4129 186.639 88.6477C186.98 88.8826 187.425 89 187.974 89C188.599 89 189.095 88.8674 189.462 88.6023C189.834 88.3333 190.019 88.0114 190.019 87.6364C190.019 87.3333 189.913 87.0795 189.701 86.875C189.489 86.6667 189.163 86.5114 188.724 86.4091L187.269 86.0682C186.47 85.8788 185.883 85.5852 185.508 85.1875C185.137 84.786 184.951 84.2841 184.951 83.6818C184.951 83.1894 185.089 82.7538 185.366 82.375C185.646 81.9962 186.027 81.6989 186.508 81.483C186.993 81.267 187.542 81.1591 188.156 81.1591C189.019 81.1591 189.697 81.3485 190.19 81.7273C190.686 82.1061 191.038 82.6061 191.247 83.2273Z" fill="#272D37"/>
<rect x="1" y="111" width="18" height="18" rx="9" fill="white"/>
<rect x="1" y="111" width="18" height="18" rx="9" stroke="#DAE0E6" stroke-width="2"/>
<path d="M33.4091 126V114.364H40.4318V115.614H34.8182V119.545H40.0682V120.795H34.8182V124.75H40.5227V126H33.4091ZM43.6898 117.273L45.7807 120.841L47.8716 117.273H49.417L46.5989 121.636L49.417 126H47.8716L45.7807 122.614L43.6898 126H42.1443L44.917 121.636L42.1443 117.273H43.6898ZM54.4165 126.182C53.5983 126.182 52.8937 125.989 52.3028 125.602C51.7119 125.216 51.2574 124.684 50.9392 124.006C50.621 123.328 50.4619 122.553 50.4619 121.682C50.4619 120.795 50.6248 120.013 50.9506 119.335C51.2801 118.653 51.7384 118.121 52.3256 117.739C52.9165 117.352 53.6059 117.159 54.3937 117.159C55.0074 117.159 55.5604 117.273 56.0528 117.5C56.5453 117.727 56.9487 118.045 57.2631 118.455C57.5775 118.864 57.7725 119.341 57.8483 119.886H56.5074C56.4051 119.489 56.1778 119.136 55.8256 118.83C55.4771 118.519 55.0074 118.364 54.4165 118.364C53.8937 118.364 53.4354 118.5 53.0415 118.773C52.6513 119.042 52.3464 119.422 52.1267 119.915C51.9108 120.403 51.8028 120.977 51.8028 121.636C51.8028 122.311 51.9089 122.898 52.121 123.398C52.3369 123.898 52.64 124.286 53.0301 124.562C53.4241 124.839 53.8862 124.977 54.4165 124.977C54.765 124.977 55.0812 124.917 55.3653 124.795C55.6494 124.674 55.89 124.5 56.0869 124.273C56.2839 124.045 56.4241 123.773 56.5074 123.455H57.8483C57.7725 123.97 57.585 124.434 57.2858 124.847C56.9903 125.256 56.5983 125.581 56.1097 125.824C55.6248 126.062 55.0604 126.182 54.4165 126.182ZM61.0494 114.364V126H59.7085V114.364H61.0494ZM68.9054 122.432V117.273H70.2463V126H68.9054V124.523H68.8145C68.6099 124.966 68.2918 125.343 67.8599 125.653C67.4281 125.96 66.8827 126.114 66.2236 126.114C65.6781 126.114 65.1933 125.994 64.769 125.756C64.3448 125.513 64.0115 125.15 63.769 124.665C63.5266 124.176 63.4054 123.561 63.4054 122.818V117.273H64.7463V122.727C64.7463 123.364 64.9243 123.871 65.2804 124.25C65.6402 124.629 66.0986 124.818 66.6554 124.818C66.9887 124.818 67.3277 124.733 67.6724 124.562C68.0209 124.392 68.3126 124.131 68.5474 123.778C68.7861 123.426 68.9054 122.977 68.9054 122.432ZM78.7841 119.227L77.5795 119.568C77.5038 119.367 77.392 119.172 77.2443 118.983C77.1004 118.79 76.9034 118.631 76.6534 118.506C76.4034 118.381 76.0833 118.318 75.6932 118.318C75.1591 118.318 74.714 118.441 74.358 118.688C74.0057 118.93 73.8295 119.239 73.8295 119.614C73.8295 119.947 73.9508 120.21 74.1932 120.403C74.4356 120.597 74.8144 120.758 75.3295 120.886L76.625 121.205C77.4053 121.394 77.9867 121.684 78.3693 122.074C78.7519 122.46 78.9432 122.958 78.9432 123.568C78.9432 124.068 78.7992 124.515 78.5114 124.909C78.2273 125.303 77.8295 125.614 77.3182 125.841C76.8068 126.068 76.2121 126.182 75.5341 126.182C74.6439 126.182 73.9072 125.989 73.3239 125.602C72.7405 125.216 72.3712 124.652 72.2159 123.909L73.4886 123.591C73.6098 124.061 73.839 124.413 74.1761 124.648C74.517 124.883 74.9621 125 75.5114 125C76.1364 125 76.6326 124.867 77 124.602C77.3712 124.333 77.5568 124.011 77.5568 123.636C77.5568 123.333 77.4508 123.08 77.2386 122.875C77.0265 122.667 76.7008 122.511 76.2614 122.409L74.8068 122.068C74.0076 121.879 73.4205 121.585 73.0455 121.188C72.6742 120.786 72.4886 120.284 72.4886 119.682C72.4886 119.189 72.6269 118.754 72.9034 118.375C73.1837 117.996 73.5644 117.699 74.0455 117.483C74.5303 117.267 75.0795 117.159 75.6932 117.159C76.5568 117.159 77.2348 117.348 77.7273 117.727C78.2235 118.106 78.5758 118.606 78.7841 119.227ZM80.8616 126V117.273H82.2026V126H80.8616ZM81.5435 115.818C81.2821 115.818 81.0567 115.729 80.8673 115.551C80.6817 115.373 80.5889 115.159 80.5889 114.909C80.5889 114.659 80.6817 114.445 80.8673 114.267C81.0567 114.089 81.2821 114 81.5435 114C81.8048 114 82.0283 114.089 82.2139 114.267C82.4033 114.445 82.498 114.659 82.498 114.909C82.498 115.159 82.4033 115.373 82.2139 115.551C82.0283 115.729 81.8048 115.818 81.5435 115.818ZM91.6949 117.273L88.4676 126H87.104L83.8767 117.273H85.3312L87.7403 124.227H87.8312L90.2403 117.273H91.6949ZM96.7114 126.182C95.8705 126.182 95.1451 125.996 94.5352 125.625C93.9292 125.25 93.4614 124.727 93.1318 124.057C92.8061 123.383 92.6432 122.598 92.6432 121.705C92.6432 120.811 92.8061 120.023 93.1318 119.341C93.4614 118.655 93.9197 118.121 94.5068 117.739C95.0977 117.352 95.7871 117.159 96.575 117.159C97.0295 117.159 97.4784 117.235 97.9216 117.386C98.3648 117.538 98.7682 117.784 99.1318 118.125C99.4955 118.462 99.7852 118.909 100.001 119.466C100.217 120.023 100.325 120.708 100.325 121.523V122.091H93.5977V120.932H98.9614C98.9614 120.439 98.8629 120 98.6659 119.614C98.4727 119.227 98.1962 118.922 97.8364 118.699C97.4803 118.475 97.0598 118.364 96.575 118.364C96.0409 118.364 95.5788 118.496 95.1886 118.761C94.8023 119.023 94.5049 119.364 94.2966 119.784C94.0883 120.205 93.9841 120.655 93.9841 121.136V121.909C93.9841 122.568 94.0977 123.127 94.325 123.585C94.5561 124.04 94.8761 124.386 95.2852 124.625C95.6943 124.86 96.1697 124.977 96.7114 124.977C97.0636 124.977 97.3818 124.928 97.6659 124.83C97.9538 124.727 98.2019 124.576 98.4102 124.375C98.6186 124.17 98.7795 123.917 98.8932 123.614L100.189 123.977C100.052 124.417 99.8231 124.803 99.5011 125.136C99.1792 125.466 98.7814 125.723 98.308 125.909C97.8345 126.091 97.3023 126.182 96.7114 126.182ZM106.665 129.273V117.273H107.96V118.659H108.119C108.218 118.508 108.354 118.314 108.528 118.08C108.706 117.841 108.96 117.629 109.29 117.443C109.623 117.254 110.074 117.159 110.642 117.159C111.377 117.159 112.025 117.343 112.585 117.71C113.146 118.078 113.583 118.598 113.898 119.273C114.212 119.947 114.369 120.742 114.369 121.659C114.369 122.583 114.212 123.384 113.898 124.062C113.583 124.737 113.148 125.259 112.591 125.631C112.034 125.998 111.392 126.182 110.665 126.182C110.104 126.182 109.655 126.089 109.318 125.903C108.981 125.714 108.722 125.5 108.54 125.261C108.358 125.019 108.218 124.818 108.119 124.659H108.006V129.273H106.665ZM107.983 121.636C107.983 122.295 108.08 122.877 108.273 123.381C108.466 123.881 108.748 124.273 109.119 124.557C109.491 124.837 109.945 124.977 110.483 124.977C111.044 124.977 111.511 124.83 111.886 124.534C112.265 124.235 112.549 123.833 112.739 123.33C112.932 122.822 113.028 122.258 113.028 121.636C113.028 121.023 112.934 120.47 112.744 119.977C112.559 119.481 112.277 119.089 111.898 118.801C111.523 118.509 111.051 118.364 110.483 118.364C109.938 118.364 109.479 118.502 109.108 118.778C108.737 119.051 108.456 119.434 108.267 119.926C108.078 120.415 107.983 120.985 107.983 121.636ZM116.315 126V117.273H117.61V118.591H117.701C117.86 118.159 118.148 117.809 118.565 117.54C118.981 117.271 119.451 117.136 119.974 117.136C120.072 117.136 120.195 117.138 120.343 117.142C120.491 117.146 120.603 117.152 120.678 117.159V118.523C120.633 118.511 120.529 118.494 120.366 118.472C120.207 118.445 120.038 118.432 119.86 118.432C119.436 118.432 119.057 118.521 118.724 118.699C118.394 118.873 118.133 119.116 117.94 119.426C117.75 119.733 117.656 120.083 117.656 120.477V126H116.315ZM125.561 126.182C124.72 126.182 123.995 125.996 123.385 125.625C122.779 125.25 122.311 124.727 121.982 124.057C121.656 123.383 121.493 122.598 121.493 121.705C121.493 120.811 121.656 120.023 121.982 119.341C122.311 118.655 122.77 118.121 123.357 117.739C123.948 117.352 124.637 117.159 125.425 117.159C125.88 117.159 126.328 117.235 126.772 117.386C127.215 117.538 127.618 117.784 127.982 118.125C128.345 118.462 128.635 118.909 128.851 119.466C129.067 120.023 129.175 120.708 129.175 121.523V122.091H122.448V120.932H127.811C127.811 120.439 127.713 120 127.516 119.614C127.323 119.227 127.046 118.922 126.686 118.699C126.33 118.475 125.91 118.364 125.425 118.364C124.891 118.364 124.429 118.496 124.039 118.761C123.652 119.023 123.355 119.364 123.147 119.784C122.938 120.205 122.834 120.655 122.834 121.136V121.909C122.834 122.568 122.948 123.127 123.175 123.585C123.406 124.04 123.726 124.386 124.135 124.625C124.544 124.86 125.02 124.977 125.561 124.977C125.914 124.977 126.232 124.928 126.516 124.83C126.804 124.727 127.052 124.576 127.26 124.375C127.469 124.17 127.63 123.917 127.743 123.614L129.039 123.977C128.902 124.417 128.673 124.803 128.351 125.136C128.029 125.466 127.631 125.723 127.158 125.909C126.684 126.091 126.152 126.182 125.561 126.182ZM131.115 126V117.273H132.41V118.636H132.524C132.706 118.17 132.999 117.809 133.405 117.551C133.81 117.29 134.297 117.159 134.865 117.159C135.441 117.159 135.92 117.29 136.302 117.551C136.689 117.809 136.99 118.17 137.206 118.636H137.297C137.52 118.186 137.855 117.828 138.302 117.562C138.749 117.294 139.285 117.159 139.91 117.159C140.691 117.159 141.329 117.403 141.825 117.892C142.321 118.377 142.569 119.133 142.569 120.159V126H141.228V120.159C141.228 119.515 141.052 119.055 140.7 118.778C140.348 118.502 139.933 118.364 139.456 118.364C138.842 118.364 138.367 118.549 138.03 118.92C137.692 119.288 137.524 119.754 137.524 120.318V126H136.16V120.023C136.16 119.527 135.999 119.127 135.677 118.824C135.355 118.517 134.941 118.364 134.433 118.364C134.084 118.364 133.759 118.456 133.456 118.642C133.156 118.828 132.914 119.085 132.728 119.415C132.547 119.741 132.456 120.117 132.456 120.545V126H131.115ZM144.921 126V117.273H146.262V126H144.921ZM145.603 115.818C145.341 115.818 145.116 115.729 144.927 115.551C144.741 115.373 144.648 115.159 144.648 114.909C144.648 114.659 144.741 114.445 144.927 114.267C145.116 114.089 145.341 114 145.603 114C145.864 114 146.088 114.089 146.273 114.267C146.463 114.445 146.557 114.659 146.557 114.909C146.557 115.159 146.463 115.373 146.273 115.551C146.088 115.729 145.864 115.818 145.603 115.818ZM154.118 122.432V117.273H155.459V126H154.118V124.523H154.027C153.822 124.966 153.504 125.343 153.072 125.653C152.641 125.96 152.095 126.114 151.436 126.114C150.891 126.114 150.406 125.994 149.982 125.756C149.557 125.513 149.224 125.15 148.982 124.665C148.739 124.176 148.618 123.561 148.618 122.818V117.273H149.959V122.727C149.959 123.364 150.137 123.871 150.493 124.25C150.853 124.629 151.311 124.818 151.868 124.818C152.201 124.818 152.54 124.733 152.885 124.562C153.233 124.392 153.525 124.131 153.76 123.778C153.999 123.426 154.118 122.977 154.118 122.432ZM157.815 126V117.273H159.11V118.636H159.224C159.406 118.17 159.699 117.809 160.105 117.551C160.51 117.29 160.997 117.159 161.565 117.159C162.141 117.159 162.62 117.29 163.002 117.551C163.389 117.809 163.69 118.17 163.906 118.636H163.997C164.22 118.186 164.555 117.828 165.002 117.562C165.449 117.294 165.985 117.159 166.61 117.159C167.391 117.159 168.029 117.403 168.525 117.892C169.021 118.377 169.269 119.133 169.269 120.159V126H167.928V120.159C167.928 119.515 167.752 119.055 167.4 118.778C167.048 118.502 166.633 118.364 166.156 118.364C165.542 118.364 165.067 118.549 164.73 118.92C164.392 119.288 164.224 119.754 164.224 120.318V126H162.86V120.023C162.86 119.527 162.699 119.127 162.377 118.824C162.055 118.517 161.641 118.364 161.133 118.364C160.784 118.364 160.459 118.456 160.156 118.642C159.856 118.828 159.614 119.085 159.428 119.415C159.247 119.741 159.156 120.117 159.156 120.545V126H157.815ZM177.998 126L175.339 117.273H176.748L178.635 123.955H178.726L180.589 117.273H182.021L183.862 123.932H183.953L185.839 117.273H187.248L184.589 126H183.271L181.362 119.295H181.226L179.316 126H177.998ZM188.921 126V117.273H190.262V126H188.921ZM189.603 115.818C189.341 115.818 189.116 115.729 188.927 115.551C188.741 115.373 188.648 115.159 188.648 114.909C188.648 114.659 188.741 114.445 188.927 114.267C189.116 114.089 189.341 114 189.603 114C189.864 114 190.088 114.089 190.273 114.267C190.463 114.445 190.557 114.659 190.557 114.909C190.557 115.159 190.463 115.373 190.273 115.551C190.088 115.729 189.864 115.818 189.603 115.818ZM195.913 126.182C195.186 126.182 194.544 125.998 193.987 125.631C193.43 125.259 192.995 124.737 192.68 124.062C192.366 123.384 192.209 122.583 192.209 121.659C192.209 120.742 192.366 119.947 192.68 119.273C192.995 118.598 193.432 118.078 193.993 117.71C194.554 117.343 195.201 117.159 195.936 117.159C196.504 117.159 196.953 117.254 197.283 117.443C197.616 117.629 197.87 117.841 198.044 118.08C198.222 118.314 198.36 118.508 198.459 118.659H198.572V114.364H199.913V126H198.618V124.659H198.459C198.36 124.818 198.22 125.019 198.038 125.261C197.857 125.5 197.597 125.714 197.26 125.903C196.923 126.089 196.474 126.182 195.913 126.182ZM196.095 124.977C196.633 124.977 197.088 124.837 197.459 124.557C197.83 124.273 198.112 123.881 198.305 123.381C198.499 122.877 198.595 122.295 198.595 121.636C198.595 120.985 198.5 120.415 198.311 119.926C198.122 119.434 197.841 119.051 197.47 118.778C197.099 118.502 196.641 118.364 196.095 118.364C195.527 118.364 195.054 118.509 194.675 118.801C194.3 119.089 194.018 119.481 193.828 119.977C193.643 120.47 193.55 121.023 193.55 121.636C193.55 122.258 193.644 122.822 193.834 123.33C194.027 123.833 194.311 124.235 194.686 124.534C195.065 124.83 195.535 124.977 196.095 124.977ZM205.978 129.455C205.33 129.455 204.774 129.371 204.308 129.205C203.842 129.042 203.453 128.826 203.143 128.557C202.836 128.292 202.592 128.008 202.41 127.705L203.478 126.955C203.599 127.114 203.753 127.295 203.938 127.5C204.124 127.708 204.378 127.888 204.7 128.04C205.025 128.195 205.452 128.273 205.978 128.273C206.683 128.273 207.264 128.102 207.722 127.761C208.181 127.42 208.41 126.886 208.41 126.159V124.386H208.296C208.198 124.545 208.058 124.742 207.876 124.977C207.698 125.208 207.44 125.415 207.103 125.597C206.77 125.775 206.319 125.864 205.751 125.864C205.046 125.864 204.414 125.697 203.853 125.364C203.296 125.03 202.855 124.545 202.529 123.909C202.207 123.273 202.046 122.5 202.046 121.591C202.046 120.697 202.203 119.919 202.518 119.256C202.832 118.589 203.27 118.074 203.83 117.71C204.391 117.343 205.039 117.159 205.774 117.159C206.342 117.159 206.793 117.254 207.126 117.443C207.463 117.629 207.721 117.841 207.899 118.08C208.08 118.314 208.221 118.508 208.319 118.659H208.455V117.273H209.751V126.25C209.751 127 209.58 127.61 209.239 128.08C208.902 128.553 208.448 128.9 207.876 129.119C207.308 129.343 206.675 129.455 205.978 129.455ZM205.933 124.659C206.471 124.659 206.925 124.536 207.296 124.29C207.668 124.044 207.95 123.689 208.143 123.227C208.336 122.765 208.433 122.212 208.433 121.568C208.433 120.939 208.338 120.384 208.149 119.903C207.959 119.422 207.679 119.045 207.308 118.773C206.936 118.5 206.478 118.364 205.933 118.364C205.364 118.364 204.891 118.508 204.512 118.795C204.137 119.083 203.855 119.47 203.666 119.955C203.48 120.439 203.387 120.977 203.387 121.568C203.387 122.174 203.482 122.71 203.671 123.176C203.864 123.638 204.149 124.002 204.524 124.267C204.902 124.528 205.372 124.659 205.933 124.659ZM215.764 126.182C214.924 126.182 214.198 125.996 213.588 125.625C212.982 125.25 212.514 124.727 212.185 124.057C211.859 123.383 211.696 122.598 211.696 121.705C211.696 120.811 211.859 120.023 212.185 119.341C212.514 118.655 212.973 118.121 213.56 117.739C214.151 117.352 214.84 117.159 215.628 117.159C216.083 117.159 216.532 117.235 216.975 117.386C217.418 117.538 217.821 117.784 218.185 118.125C218.549 118.462 218.838 118.909 219.054 119.466C219.27 120.023 219.378 120.708 219.378 121.523V122.091H212.651V120.932H218.014C218.014 120.439 217.916 120 217.719 119.614C217.526 119.227 217.249 118.922 216.889 118.699C216.533 118.475 216.113 118.364 215.628 118.364C215.094 118.364 214.632 118.496 214.242 118.761C213.855 119.023 213.558 119.364 213.35 119.784C213.141 120.205 213.037 120.655 213.037 121.136V121.909C213.037 122.568 213.151 123.127 213.378 123.585C213.609 124.04 213.929 124.386 214.338 124.625C214.747 124.86 215.223 124.977 215.764 124.977C216.117 124.977 216.435 124.928 216.719 124.83C217.007 124.727 217.255 124.576 217.463 124.375C217.672 124.17 217.833 123.917 217.946 123.614L219.242 123.977C219.105 124.417 218.876 124.803 218.554 125.136C218.232 125.466 217.835 125.723 217.361 125.909C216.888 126.091 216.355 126.182 215.764 126.182ZM225.113 117.273V118.409H220.591V117.273H225.113ZM221.909 115.182H223.25V123.5C223.25 123.879 223.305 124.163 223.414 124.352C223.528 124.538 223.672 124.663 223.846 124.727C224.024 124.788 224.212 124.818 224.409 124.818C224.557 124.818 224.678 124.811 224.772 124.795C224.867 124.777 224.943 124.761 225 124.75L225.272 125.955C225.182 125.989 225.055 126.023 224.892 126.057C224.729 126.095 224.522 126.114 224.272 126.114C223.894 126.114 223.522 126.032 223.159 125.869C222.799 125.706 222.5 125.458 222.261 125.125C222.026 124.792 221.909 124.371 221.909 123.864V115.182ZM233.056 119.227L231.851 119.568C231.776 119.367 231.664 119.172 231.516 118.983C231.372 118.79 231.175 118.631 230.925 118.506C230.675 118.381 230.355 118.318 229.965 118.318C229.431 118.318 228.986 118.441 228.63 118.688C228.278 118.93 228.101 119.239 228.101 119.614C228.101 119.947 228.223 120.21 228.465 120.403C228.707 120.597 229.086 120.758 229.601 120.886L230.897 121.205C231.677 121.394 232.259 121.684 232.641 122.074C233.024 122.46 233.215 122.958 233.215 123.568C233.215 124.068 233.071 124.515 232.783 124.909C232.499 125.303 232.101 125.614 231.59 125.841C231.079 126.068 230.484 126.182 229.806 126.182C228.916 126.182 228.179 125.989 227.596 125.602C227.012 125.216 226.643 124.652 226.488 123.909L227.761 123.591C227.882 124.061 228.111 124.413 228.448 124.648C228.789 124.883 229.234 125 229.783 125C230.408 125 230.904 124.867 231.272 124.602C231.643 124.333 231.829 124.011 231.829 123.636C231.829 123.333 231.723 123.08 231.511 122.875C231.298 122.667 230.973 122.511 230.533 122.409L229.079 122.068C228.279 121.879 227.692 121.585 227.317 121.188C226.946 120.786 226.761 120.284 226.761 119.682C226.761 119.189 226.899 118.754 227.175 118.375C227.456 117.996 227.836 117.699 228.317 117.483C228.802 117.267 229.351 117.159 229.965 117.159C230.829 117.159 231.507 117.348 231.999 117.727C232.495 118.106 232.848 118.606 233.056 119.227Z" fill="#272D37"/>
</svg>
