<svg width="48" height="48" viewBox="0 0 48 48" fill="none" xmlns="http://www.w3.org/2000/svg">
<rect width="48" height="48" rx="24" fill="#437EF7"/>
<path fill-rule="evenodd" clip-rule="evenodd" d="M9.3335 23.9997C9.3335 15.8995 15.9 9.33301 24.0002 9.33301C32.1003 9.33301 38.6668 15.8995 38.6668 23.9997C38.6668 32.0998 32.1003 38.6663 24.0002 38.6663C15.9 38.6663 9.3335 32.0998 9.3335 23.9997ZM24.0002 13.333C24.7365 13.333 25.3335 13.93 25.3335 14.6663V19.8515C25.3335 20.5879 24.7365 21.1849 24.0002 21.1849C23.2638 21.1849 22.6668 20.5879 22.6668 19.8515V14.6663C22.6668 13.93 23.2638 13.333 24.0002 13.333ZM33.3335 25.333C34.0699 25.333 34.6668 24.7361 34.6668 23.9997C34.6668 23.2633 34.0699 22.6663 33.3335 22.6663H28.1483C27.4119 22.6663 26.815 23.2633 26.815 23.9997C26.815 24.7361 27.4119 25.333 28.1483 25.333H33.3335ZM24.0002 26.8145C24.7365 26.8145 25.3335 27.4114 25.3335 28.1478V33.333C25.3335 34.0694 24.7365 34.6663 24.0002 34.6663C23.2638 34.6663 22.6668 34.0694 22.6668 33.333V28.1478C22.6668 27.4114 23.2638 26.8145 24.0002 26.8145ZM19.852 25.333C20.5884 25.333 21.1853 24.7361 21.1853 23.9997C21.1853 23.2633 20.5884 22.6663 19.852 22.6663H14.6668C13.9304 22.6663 13.3335 23.2633 13.3335 23.9997C13.3335 24.7361 13.9304 25.333 14.6668 25.333H19.852Z" fill="white"/>
</svg>
