<svg width="48" height="48" viewBox="0 0 48 48" fill="none" xmlns="http://www.w3.org/2000/svg">
<rect width="48" height="48" rx="24" fill="#437EF7"/>
<path d="M25.3332 19.8317C27.6335 19.2396 29.3332 17.1515 29.3332 14.6663C29.3332 11.7208 26.9454 9.33301 23.9998 9.33301C21.0543 9.33301 18.6665 11.7208 18.6665 14.6663C18.6665 17.1515 20.3662 19.2396 22.6665 19.8317V22.6663H18.6665C16.4574 22.6663 14.6665 24.4572 14.6665 26.6663V28.1677C12.3662 28.7598 10.6665 30.8479 10.6665 33.333C10.6665 36.2785 13.0543 38.6663 15.9998 38.6663C18.9454 38.6663 21.3332 36.2785 21.3332 33.333C21.3332 30.8479 19.6335 28.7598 17.3332 28.1677V26.6663C17.3332 25.93 17.9301 25.333 18.6665 25.333H29.3332C30.0695 25.333 30.6665 25.93 30.6665 26.6663V28.1677C28.3662 28.7598 26.6665 30.8479 26.6665 33.333C26.6665 36.2785 29.0543 38.6663 31.9998 38.6663C34.9454 38.6663 37.3332 36.2785 37.3332 33.333C37.3332 30.8479 35.6335 28.7598 33.3332 28.1677V26.6663C33.3332 24.4572 31.5423 22.6663 29.3332 22.6663H25.3332V19.8317Z" fill="white"/>
</svg>
