<svg width="48" height="48" viewBox="0 0 48 48" fill="none" xmlns="http://www.w3.org/2000/svg">
<rect width="48" height="48" rx="24" fill="#437EF7"/>
<path d="M18.2767 16.3915C18.5266 15.8694 18.6665 15.2845 18.6665 14.667C18.6665 12.4579 16.8756 10.667 14.6665 10.667C12.4574 10.667 10.6665 12.4579 10.6665 14.667C10.6665 16.8761 12.4574 18.667 14.6665 18.667C15.284 18.667 15.8689 18.5271 16.3911 18.2772L18.4377 20.3238C17.7397 21.3777 17.3332 22.6416 17.3332 24.0003C17.3332 25.3591 17.7397 26.6229 18.4377 27.6768L16.6906 29.424C16.4703 29.3651 16.2387 29.3337 15.9998 29.3337C14.5271 29.3337 13.3332 30.5276 13.3332 32.0003C13.3332 33.4731 14.5271 34.667 15.9998 34.667C17.4726 34.667 18.6665 33.4731 18.6665 32.0003C18.6665 31.7614 18.6351 31.5299 18.5762 31.3096L20.3233 29.5625C21.3772 30.2605 22.6411 30.667 23.9998 30.667C25.3586 30.667 26.6224 30.2605 27.6764 29.5625L29.723 31.6091C29.4731 32.1313 29.3332 32.7161 29.3332 33.3337C29.3332 35.5428 31.124 37.3337 33.3332 37.3337C35.5423 37.3337 37.3332 35.5428 37.3332 33.3337C37.3332 31.1245 35.5423 29.3337 33.3332 29.3337C32.7156 29.3337 32.1308 29.4736 31.6086 29.7235L29.562 27.6768C30.26 26.6229 30.6665 25.3591 30.6665 24.0003C30.6665 22.6416 30.26 21.3777 29.562 20.3238L31.3091 18.5767C31.5294 18.6356 31.761 18.667 31.9998 18.667C33.4726 18.667 34.6665 17.4731 34.6665 16.0003C34.6665 14.5276 33.4726 13.3337 31.9998 13.3337C30.5271 13.3337 29.3332 14.5276 29.3332 16.0003C29.3332 16.2392 29.3646 16.4707 29.4235 16.6911L27.6764 18.4382C26.6224 17.7402 25.3586 17.3337 23.9998 17.3337C22.6411 17.3337 21.3772 17.7402 20.3233 18.4382L18.2767 16.3915Z" fill="white"/>
</svg>
