<svg width="48" height="48" viewBox="0 0 48 48" fill="none" xmlns="http://www.w3.org/2000/svg">
<rect width="48" height="48" rx="24" fill="#437EF7"/>
<path d="M31.9998 19.9997C34.9454 19.9997 37.3332 17.6119 37.3332 14.6663C37.3332 11.7208 34.9454 9.33301 31.9998 9.33301C29.0543 9.33301 26.6665 11.7208 26.6665 14.6663C26.6665 15.1693 26.7361 15.656 26.8663 16.1173L19.7885 20.246C18.8221 19.2705 17.4815 18.6663 15.9998 18.6663C13.0543 18.6663 10.6665 21.0542 10.6665 23.9997C10.6665 26.9452 13.0543 29.333 15.9998 29.333C17.4815 29.333 18.8221 28.7288 19.7885 27.7534L26.8663 31.882C26.7361 32.3433 26.6665 32.83 26.6665 33.333C26.6665 36.2785 29.0543 38.6663 31.9998 38.6663C34.9454 38.6663 37.3332 36.2785 37.3332 33.333C37.3332 30.3875 34.9454 27.9997 31.9998 27.9997C30.5182 27.9997 29.1776 28.6039 28.2111 29.5793L21.1334 25.4507C21.2635 24.9893 21.3332 24.5026 21.3332 23.9997C21.3332 23.4967 21.2635 23.01 21.1334 22.5487L28.2111 18.42C29.1776 19.3955 30.5182 19.9997 31.9998 19.9997Z" fill="white"/>
</svg>
