<svg width="384" height="46" viewBox="0 0 384 46" fill="none" xmlns="http://www.w3.org/2000/svg">
<rect x="0.5" y="0.5" width="383" height="45" rx="4.5" fill="#F7F7F8"/>
<g filter="url(#filter0_d_3_67558)">
<rect x="4" y="4" width="185" height="38" rx="5" fill="white" shape-rendering="crispEdges"/>
<path d="M69.5043 17.8182H71.7614L74.7841 25.196H74.9034L77.9261 17.8182H80.1832V28H78.4134V21.005H78.3189L75.505 27.9702H74.1825L71.3686 20.9901H71.2741V28H69.5043V17.8182ZM85.4432 28.1491C84.6974 28.1491 84.0511 27.9851 83.5043 27.657C82.9574 27.3288 82.5331 26.8698 82.2315 26.2798C81.9332 25.6899 81.7841 25.0005 81.7841 24.2116C81.7841 23.4228 81.9332 22.7318 82.2315 22.1385C82.5331 21.5452 82.9574 21.0845 83.5043 20.7564C84.0511 20.4283 84.6974 20.2642 85.4432 20.2642C86.1889 20.2642 86.8352 20.4283 87.3821 20.7564C87.929 21.0845 88.3516 21.5452 88.6499 22.1385C88.9515 22.7318 89.1023 23.4228 89.1023 24.2116C89.1023 25.0005 88.9515 25.6899 88.6499 26.2798C88.3516 26.8698 87.929 27.3288 87.3821 27.657C86.8352 27.9851 86.1889 28.1491 85.4432 28.1491ZM85.4531 26.7074C85.8575 26.7074 86.1955 26.5964 86.4673 26.3743C86.7391 26.1489 86.9413 25.8473 87.0739 25.4695C87.2098 25.0916 87.2777 24.6707 87.2777 24.2067C87.2777 23.7393 87.2098 23.3168 87.0739 22.9389C86.9413 22.5578 86.7391 22.2545 86.4673 22.0291C86.1955 21.8037 85.8575 21.6911 85.4531 21.6911C85.0388 21.6911 84.6941 21.8037 84.419 22.0291C84.1473 22.2545 83.9434 22.5578 83.8075 22.9389C83.675 23.3168 83.6087 23.7393 83.6087 24.2067C83.6087 24.6707 83.675 25.0916 83.8075 25.4695C83.9434 25.8473 84.1473 26.1489 84.419 26.3743C84.6941 26.5964 85.0388 26.7074 85.4531 26.7074ZM92.4295 23.5256V28H90.6298V20.3636H92.35V21.6612H92.4395C92.6151 21.2337 92.8952 20.8939 93.2797 20.642C93.6674 20.3902 94.1464 20.2642 94.7164 20.2642C95.2434 20.2642 95.7025 20.3769 96.0936 20.6023C96.488 20.8277 96.7929 21.1541 97.0083 21.5817C97.2271 22.0092 97.3348 22.5279 97.3315 23.1378V28H95.5318V23.4162C95.5318 22.9058 95.3992 22.5064 95.1341 22.218C94.8722 21.9297 94.5093 21.7855 94.0453 21.7855C93.7304 21.7855 93.4503 21.8551 93.2051 21.9943C92.9631 22.1302 92.7725 22.3274 92.6333 22.5859C92.4975 22.8445 92.4295 23.1577 92.4295 23.5256ZM102.974 20.3636V21.7557H98.5843V20.3636H102.974ZM99.6681 18.5341H101.468V25.7031C101.468 25.9451 101.504 26.1307 101.577 26.2599C101.653 26.3859 101.753 26.4721 101.876 26.5185C101.998 26.5649 102.134 26.5881 102.283 26.5881C102.396 26.5881 102.499 26.5798 102.591 26.5632C102.688 26.5466 102.76 26.5317 102.81 26.5185L103.113 27.9254C103.017 27.9586 102.88 27.995 102.701 28.0348C102.525 28.0746 102.31 28.0978 102.055 28.1044C101.604 28.1177 101.198 28.0497 100.836 27.9006C100.475 27.7481 100.189 27.5128 99.9764 27.1946C99.7676 26.8764 99.6648 26.4787 99.6681 26.0014V18.5341ZM106.443 23.5256V28H104.643V17.8182H106.403V21.6612H106.493C106.672 21.2304 106.949 20.8906 107.323 20.642C107.701 20.3902 108.182 20.2642 108.765 20.2642C109.295 20.2642 109.758 20.3752 110.152 20.5973C110.546 20.8194 110.851 21.1442 111.067 21.5717C111.286 21.9993 111.395 22.5213 111.395 23.1378V28H109.595V23.4162C109.595 22.9025 109.463 22.5031 109.197 22.218C108.936 21.9297 108.568 21.7855 108.094 21.7855C107.776 21.7855 107.491 21.8551 107.239 21.9943C106.99 22.1302 106.795 22.3274 106.652 22.5859C106.513 22.8445 106.443 23.1577 106.443 23.5256ZM115.029 17.8182V28H113.229V17.8182H115.029ZM117.998 30.8636C117.753 30.8636 117.526 30.8438 117.317 30.804C117.112 30.7675 116.948 30.7244 116.825 30.6747L117.243 29.2727C117.505 29.349 117.738 29.3854 117.944 29.3821C118.149 29.3788 118.33 29.3142 118.486 29.1882C118.645 29.0656 118.779 28.8601 118.888 28.5717L119.042 28.1591L116.273 20.3636H118.182L119.942 26.1307H120.022L121.787 20.3636H123.701L120.643 28.9247C120.501 29.3291 120.312 29.6754 120.077 29.9638C119.841 30.2554 119.553 30.4775 119.211 30.63C118.873 30.7857 118.469 30.8636 117.998 30.8636Z" fill="#272D37"/>
</g>
<path d="M266.308 17.8182H268.391L270.882 22.3224H270.982L273.472 17.8182H275.555L271.852 24.2017V28H270.012V24.2017L266.308 17.8182ZM278.741 28.1491C277.975 28.1491 277.314 27.9901 276.757 27.6719C276.204 27.3504 275.778 26.8963 275.48 26.3097C275.181 25.7197 275.032 25.0253 275.032 24.2266C275.032 23.4411 275.181 22.7517 275.48 22.1584C275.781 21.5618 276.202 21.0978 276.742 20.7663C277.283 20.4316 277.917 20.2642 278.646 20.2642C279.117 20.2642 279.561 20.3404 279.979 20.4929C280.4 20.642 280.771 20.8741 281.093 21.1889C281.417 21.5038 281.673 21.9048 281.858 22.392C282.044 22.8759 282.137 23.4527 282.137 24.1222V24.674H275.877V23.4609H280.411C280.408 23.1162 280.334 22.8097 280.188 22.5412C280.042 22.2694 279.838 22.0556 279.576 21.8999C279.318 21.7441 279.016 21.6662 278.671 21.6662C278.303 21.6662 277.98 21.7557 277.702 21.9347C277.423 22.1103 277.206 22.3423 277.051 22.6307C276.898 22.9157 276.82 23.2289 276.817 23.5703V24.6293C276.817 25.0734 276.898 25.4545 277.061 25.7727C277.223 26.0876 277.45 26.3295 277.742 26.4986C278.033 26.6643 278.375 26.7472 278.766 26.7472C279.028 26.7472 279.265 26.7107 279.477 26.6378C279.689 26.5616 279.873 26.4505 280.029 26.3047C280.184 26.1589 280.302 25.9782 280.382 25.7628L282.062 25.9517C281.956 26.3958 281.754 26.7836 281.455 27.1151C281.16 27.4432 280.783 27.6984 280.322 27.8807C279.861 28.0597 279.334 28.1491 278.741 28.1491ZM285.857 28.1541C285.373 28.1541 284.937 28.0679 284.549 27.8956C284.165 27.7199 283.86 27.4614 283.634 27.12C283.412 26.7786 283.301 26.3577 283.301 25.8572C283.301 25.4264 283.381 25.0701 283.54 24.7884C283.699 24.5066 283.916 24.2812 284.191 24.1122C284.466 23.9432 284.776 23.8156 285.121 23.7294C285.469 23.6399 285.828 23.5753 286.2 23.5355C286.647 23.4891 287.01 23.4477 287.288 23.4112C287.567 23.3714 287.769 23.3118 287.895 23.2322C288.024 23.1494 288.089 23.0218 288.089 22.8494V22.8196C288.089 22.4451 287.978 22.1551 287.756 21.9496C287.534 21.7441 287.214 21.6413 286.796 21.6413C286.355 21.6413 286.006 21.7375 285.747 21.9297C285.492 22.1219 285.32 22.349 285.23 22.6108L283.55 22.3722C283.682 21.9081 283.901 21.5204 284.206 21.2088C284.511 20.8939 284.884 20.6586 285.325 20.5028C285.765 20.3438 286.253 20.2642 286.786 20.2642C287.154 20.2642 287.52 20.3073 287.885 20.3935C288.25 20.4796 288.583 20.6222 288.884 20.821C289.186 21.0166 289.428 21.2834 289.61 21.6214C289.796 21.9595 289.888 22.3821 289.888 22.8892V28H288.158V26.951H288.099C287.989 27.1631 287.835 27.362 287.636 27.5476C287.441 27.7299 287.194 27.8774 286.896 27.9901C286.601 28.0994 286.254 28.1541 285.857 28.1541ZM286.324 26.8317C286.685 26.8317 286.998 26.7604 287.263 26.6179C287.529 26.4721 287.732 26.2798 287.875 26.0412C288.021 25.8026 288.094 25.5424 288.094 25.2607V24.3608C288.037 24.4072 287.941 24.4503 287.805 24.4901C287.673 24.5298 287.524 24.5646 287.358 24.5945C287.192 24.6243 287.028 24.6508 286.866 24.674C286.703 24.6972 286.563 24.7171 286.443 24.7337C286.175 24.7701 285.934 24.8298 285.722 24.9126C285.51 24.9955 285.343 25.1115 285.22 25.2607C285.098 25.4065 285.036 25.5954 285.036 25.8274C285.036 26.1589 285.157 26.4091 285.399 26.5781C285.641 26.7472 285.949 26.8317 286.324 26.8317ZM291.698 28V20.3636H293.443V21.6364H293.523C293.662 21.1955 293.901 20.8558 294.239 20.6172C294.58 20.3752 294.969 20.2543 295.407 20.2543C295.506 20.2543 295.617 20.2592 295.74 20.2692C295.866 20.2758 295.97 20.2874 296.053 20.304V21.9595C295.977 21.933 295.856 21.9098 295.69 21.8899C295.528 21.8667 295.371 21.8551 295.218 21.8551C294.89 21.8551 294.595 21.9264 294.333 22.0689C294.075 22.2081 293.871 22.402 293.722 22.6506C293.572 22.8991 293.498 23.1858 293.498 23.5107V28H291.698ZM299.049 17.8182V28H297.249V17.8182H299.049ZM302.018 30.8636C301.773 30.8636 301.546 30.8438 301.337 30.804C301.131 30.7675 300.967 30.7244 300.845 30.6747L301.262 29.2727C301.524 29.349 301.758 29.3854 301.963 29.3821C302.169 29.3788 302.349 29.3142 302.505 29.1882C302.664 29.0656 302.798 28.8601 302.908 28.5717L303.062 28.1591L300.293 20.3636H302.202L303.962 26.1307H304.041L305.806 20.3636H307.72L304.663 28.9247C304.52 29.3291 304.331 29.6754 304.096 29.9638C303.861 30.2554 303.572 30.4775 303.231 30.63C302.893 30.7857 302.489 30.8636 302.018 30.8636Z" fill="#5F6D7E"/>
<rect x="0.5" y="0.5" width="383" height="45" rx="4.5" stroke="#EAEBF0"/>
<defs>
<filter id="filter0_d_3_67558" x="2" y="3" width="189" height="42" filterUnits="userSpaceOnUse" color-interpolation-filters="sRGB">
<feFlood flood-opacity="0" result="BackgroundImageFix"/>
<feColorMatrix in="SourceAlpha" type="matrix" values="0 0 0 0 0 0 0 0 0 0 0 0 0 0 0 0 0 0 127 0" result="hardAlpha"/>
<feOffset dy="1"/>
<feGaussianBlur stdDeviation="1"/>
<feComposite in2="hardAlpha" operator="out"/>
<feColorMatrix type="matrix" values="0 0 0 0 0.0627451 0 0 0 0 0.0941176 0 0 0 0 0.156863 0 0 0 0.04 0"/>
<feBlend mode="normal" in2="BackgroundImageFix" result="effect1_dropShadow_3_67558"/>
<feBlend mode="normal" in="SourceGraphic" in2="effect1_dropShadow_3_67558" result="shape"/>
</filter>
</defs>
</svg>
