<svg width="1216" height="56" viewBox="0 0 1216 56" fill="none" xmlns="http://www.w3.org/2000/svg">
<path d="M463.295 44.1818C463.295 43.5606 463.447 42.9943 463.75 42.483C464.053 41.9716 464.46 41.5644 464.971 41.2614C465.483 40.9583 466.049 40.8068 466.67 40.8068C467.208 40.8068 467.704 40.9223 468.159 41.1534C468.617 41.3845 468.996 41.7008 469.295 42.1023C469.595 42.5 469.78 42.9508 469.852 43.4545H468.477C468.401 43.0644 468.191 42.7462 467.846 42.5C467.502 42.25 467.11 42.125 466.67 42.125C466.292 42.125 465.947 42.2178 465.636 42.4034C465.326 42.589 465.078 42.8371 464.892 43.1477C464.706 43.4583 464.614 43.803 464.614 44.1818C464.614 44.5606 464.706 44.9053 464.892 45.2159C465.078 45.5265 465.326 45.7746 465.636 45.9602C465.947 46.1458 466.292 46.2386 466.67 46.2386C467.11 46.2386 467.481 46.1155 467.784 45.8693C468.091 45.6193 468.284 45.2992 468.364 44.9091H469.739C469.667 45.4129 469.49 45.8655 469.21 46.267C468.93 46.6648 468.57 46.9792 468.131 47.2102C467.695 47.4413 467.208 47.5568 466.67 47.5568C466.049 47.5568 465.483 47.4053 464.971 47.1023C464.46 46.7992 464.053 46.392 463.75 45.8807C463.447 45.3693 463.295 44.803 463.295 44.1818ZM466.614 50.1818C465.788 50.1818 465.011 50.0265 464.284 49.7159C463.56 49.4053 462.922 48.9754 462.369 48.4261C461.82 47.8731 461.388 47.2348 461.074 46.5114C460.763 45.7879 460.61 45.0114 460.614 44.1818C460.617 43.3523 460.774 42.5758 461.085 41.8523C461.399 41.1288 461.831 40.4924 462.381 39.9432C462.93 39.3902 463.566 38.9583 464.29 38.6477C465.013 38.3371 465.788 38.1818 466.614 38.1818C467.443 38.1818 468.22 38.3371 468.943 38.6477C469.67 38.9583 470.307 39.3902 470.852 39.9432C471.401 40.4924 471.831 41.1288 472.142 41.8523C472.453 42.5758 472.61 43.3523 472.614 44.1818C472.617 45.0114 472.464 45.7879 472.153 46.5114C471.843 47.2348 471.413 47.8731 470.864 48.4261C470.314 48.9754 469.676 49.4053 468.949 49.7159C468.221 50.0265 467.443 50.1818 466.614 50.1818ZM466.614 48.8636C467.261 48.8636 467.869 48.7424 468.437 48.5C469.006 48.2576 469.504 47.9223 469.932 47.4943C470.36 47.0663 470.695 46.5701 470.937 46.0057C471.18 45.4375 471.299 44.8314 471.295 44.1875C471.292 43.5398 471.168 42.9318 470.926 42.3636C470.684 41.7955 470.348 41.2973 469.92 40.8693C469.492 40.4413 468.996 40.1061 468.432 39.8636C467.867 39.6212 467.261 39.5 466.614 39.5C465.97 39.5 465.365 39.6212 464.801 39.8636C464.237 40.1061 463.74 40.4432 463.312 40.875C462.884 41.303 462.547 41.8011 462.301 42.3693C462.059 42.9337 461.935 43.5398 461.932 44.1875C461.928 44.8277 462.047 45.4318 462.29 46C462.532 46.5644 462.867 47.0606 463.295 47.4886C463.727 47.9167 464.225 48.2538 464.79 48.5C465.358 48.7424 465.966 48.8636 466.614 48.8636ZM479.44 50V48.9773L483.281 44.7727C483.732 44.2803 484.103 43.8523 484.395 43.4886C484.687 43.1212 484.903 42.7765 485.043 42.4545C485.187 42.1288 485.259 41.7879 485.259 41.4318C485.259 41.0227 485.16 40.6686 484.963 40.3693C484.77 40.0701 484.505 39.839 484.168 39.6761C483.831 39.5133 483.452 39.4318 483.031 39.4318C482.584 39.4318 482.194 39.5246 481.861 39.7102C481.531 39.892 481.276 40.1477 481.094 40.4773C480.916 40.8068 480.827 41.1932 480.827 41.6364H479.486C479.486 40.9545 479.643 40.3561 479.958 39.8409C480.272 39.3258 480.7 38.9242 481.242 38.6364C481.787 38.3485 482.399 38.2045 483.077 38.2045C483.759 38.2045 484.363 38.3485 484.889 38.6364C485.416 38.9242 485.829 39.3125 486.128 39.8011C486.427 40.2898 486.577 40.8333 486.577 41.4318C486.577 41.8598 486.499 42.2784 486.344 42.6875C486.192 43.0928 485.927 43.5455 485.548 44.0455C485.173 44.5417 484.653 45.1477 483.986 45.8636L481.372 48.6591V48.75H486.781V50H479.44ZM492.823 50.1591C491.967 50.1591 491.238 49.9261 490.636 49.4602C490.034 48.9905 489.573 48.3106 489.255 47.4205C488.937 46.5265 488.778 45.447 488.778 44.1818C488.778 42.9242 488.937 41.8504 489.255 40.9602C489.577 40.0663 490.039 39.3845 490.642 38.9148C491.248 38.4413 491.975 38.2045 492.823 38.2045C493.672 38.2045 494.397 38.4413 495 38.9148C495.606 39.3845 496.068 40.0663 496.386 40.9602C496.708 41.8504 496.869 42.9242 496.869 44.1818C496.869 45.447 496.71 46.5265 496.392 47.4205C496.073 48.3106 495.613 48.9905 495.011 49.4602C494.409 49.9261 493.68 50.1591 492.823 50.1591ZM492.823 48.9091C493.672 48.9091 494.331 48.5 494.801 47.6818C495.27 46.8636 495.505 45.697 495.505 44.1818C495.505 43.1742 495.397 42.3163 495.181 41.608C494.969 40.8996 494.662 40.3598 494.261 39.9886C493.863 39.6174 493.384 39.4318 492.823 39.4318C491.983 39.4318 491.325 39.8466 490.852 40.6761C490.378 41.5019 490.142 42.6705 490.142 44.1818C490.142 45.1894 490.248 46.0455 490.46 46.75C490.672 47.4545 490.977 47.9905 491.375 48.358C491.776 48.7254 492.259 48.9091 492.823 48.9091ZM498.928 50V48.9773L502.769 44.7727C503.22 44.2803 503.591 43.8523 503.883 43.4886C504.174 43.1212 504.39 42.7765 504.53 42.4545C504.674 42.1288 504.746 41.7879 504.746 41.4318C504.746 41.0227 504.648 40.6686 504.451 40.3693C504.258 40.0701 503.992 39.839 503.655 39.6761C503.318 39.5133 502.939 39.4318 502.519 39.4318C502.072 39.4318 501.682 39.5246 501.348 39.7102C501.019 39.892 500.763 40.1477 500.581 40.4773C500.403 40.8068 500.314 41.1932 500.314 41.6364H498.973C498.973 40.9545 499.131 40.3561 499.445 39.8409C499.759 39.3258 500.187 38.9242 500.729 38.6364C501.275 38.3485 501.886 38.2045 502.564 38.2045C503.246 38.2045 503.85 38.3485 504.377 38.6364C504.903 38.9242 505.316 39.3125 505.615 39.8011C505.915 40.2898 506.064 40.8333 506.064 41.4318C506.064 41.8598 505.987 42.2784 505.831 42.6875C505.68 43.0928 505.415 43.5455 505.036 44.0455C504.661 44.5417 504.14 45.1477 503.473 45.8636L500.86 48.6591V48.75H506.269V50H498.928ZM512.447 50.1591C511.697 50.1591 511.029 50.0303 510.442 49.7727C509.858 49.5152 509.394 49.1572 509.05 48.6989C508.709 48.2367 508.523 47.7008 508.493 47.0909H509.925C509.955 47.4659 510.084 47.7898 510.311 48.0625C510.538 48.3314 510.836 48.5398 511.203 48.6875C511.57 48.8352 511.978 48.9091 512.425 48.9091C512.925 48.9091 513.368 48.822 513.754 48.6477C514.14 48.4735 514.444 48.2311 514.663 47.9205C514.883 47.6098 514.993 47.25 514.993 46.8409C514.993 46.4129 514.887 46.036 514.675 45.7102C514.462 45.3807 514.152 45.1231 513.743 44.9375C513.334 44.7519 512.834 44.6591 512.243 44.6591H511.311V43.4091H512.243C512.705 43.4091 513.11 43.3258 513.459 43.1591C513.811 42.9924 514.086 42.7576 514.283 42.4545C514.483 42.1515 514.584 41.7955 514.584 41.3864C514.584 40.9924 514.497 40.6496 514.322 40.358C514.148 40.0663 513.902 39.839 513.584 39.6761C513.269 39.5133 512.898 39.4318 512.47 39.4318C512.069 39.4318 511.69 39.5057 511.334 39.6534C510.981 39.7973 510.694 40.0076 510.47 40.2841C510.247 40.5568 510.125 40.8864 510.106 41.2727H508.743C508.765 40.6629 508.949 40.1288 509.294 39.6705C509.639 39.2083 510.089 38.8485 510.646 38.5909C511.207 38.3333 511.822 38.2045 512.493 38.2045C513.212 38.2045 513.83 38.3504 514.345 38.642C514.86 38.9299 515.256 39.3106 515.533 39.7841C515.809 40.2576 515.947 40.7689 515.947 41.3182C515.947 41.9735 515.775 42.5322 515.43 42.9943C515.089 43.4564 514.625 43.7765 514.038 43.9545V44.0455C514.773 44.1667 515.347 44.4792 515.76 44.983C516.173 45.483 516.379 46.1023 516.379 46.8409C516.379 47.4735 516.207 48.0417 515.862 48.5455C515.521 49.0455 515.055 49.4394 514.464 49.7273C513.873 50.0152 513.201 50.1591 512.447 50.1591ZM523.208 50V38.3636H524.617V48.75H530.026V50H523.208ZM535.471 50.1818C534.683 50.1818 533.992 49.9943 533.397 49.6193C532.806 49.2443 532.344 48.7197 532.011 48.0455C531.681 47.3712 531.517 46.5833 531.517 45.6818C531.517 44.7727 531.681 43.9792 532.011 43.3011C532.344 42.6231 532.806 42.0966 533.397 41.7216C533.992 41.3466 534.683 41.1591 535.471 41.1591C536.259 41.1591 536.948 41.3466 537.539 41.7216C538.134 42.0966 538.596 42.6231 538.926 43.3011C539.259 43.9792 539.426 44.7727 539.426 45.6818C539.426 46.5833 539.259 47.3712 538.926 48.0455C538.596 48.7197 538.134 49.2443 537.539 49.6193C536.948 49.9943 536.259 50.1818 535.471 50.1818ZM535.471 48.9773C536.07 48.9773 536.562 48.8239 536.948 48.517C537.335 48.2102 537.621 47.8068 537.806 47.3068C537.992 46.8068 538.085 46.2652 538.085 45.6818C538.085 45.0985 537.992 44.5549 537.806 44.0511C537.621 43.5473 537.335 43.1402 536.948 42.8295C536.562 42.5189 536.07 42.3636 535.471 42.3636C534.873 42.3636 534.38 42.5189 533.994 42.8295C533.608 43.1402 533.322 43.5473 533.136 44.0511C532.95 44.5549 532.858 45.0985 532.858 45.6818C532.858 46.2652 532.95 46.8068 533.136 47.3068C533.322 47.8068 533.608 48.2102 533.994 48.517C534.38 48.8239 534.873 48.9773 535.471 48.9773ZM544.918 50.1818C544.13 50.1818 543.439 49.9943 542.844 49.6193C542.253 49.2443 541.791 48.7197 541.458 48.0455C541.128 47.3712 540.963 46.5833 540.963 45.6818C540.963 44.7727 541.128 43.9792 541.458 43.3011C541.791 42.6231 542.253 42.0966 542.844 41.7216C543.439 41.3466 544.13 41.1591 544.918 41.1591C545.706 41.1591 546.395 41.3466 546.986 41.7216C547.581 42.0966 548.043 42.6231 548.373 43.3011C548.706 43.9792 548.873 44.7727 548.873 45.6818C548.873 46.5833 548.706 47.3712 548.373 48.0455C548.043 48.7197 547.581 49.2443 546.986 49.6193C546.395 49.9943 545.706 50.1818 544.918 50.1818ZM544.918 48.9773C545.517 48.9773 546.009 48.8239 546.395 48.517C546.782 48.2102 547.068 47.8068 547.253 47.3068C547.439 46.8068 547.532 46.2652 547.532 45.6818C547.532 45.0985 547.439 44.5549 547.253 44.0511C547.068 43.5473 546.782 43.1402 546.395 42.8295C546.009 42.5189 545.517 42.3636 544.918 42.3636C544.32 42.3636 543.827 42.5189 543.441 42.8295C543.054 43.1402 542.768 43.5473 542.583 44.0511C542.397 44.5549 542.304 45.0985 542.304 45.6818C542.304 46.2652 542.397 46.8068 542.583 47.3068C542.768 47.8068 543.054 48.2102 543.441 48.517C543.827 48.8239 544.32 48.9773 544.918 48.9773ZM552.069 46.8182L552.047 45.1591H552.319L556.138 41.2727H557.797L553.729 45.3864H553.615L552.069 46.8182ZM550.819 50V38.3636H552.16V50H550.819ZM556.365 50L552.956 45.6818L553.91 44.75L558.069 50H556.365ZM565.604 43.2273L564.4 43.5682C564.324 43.3674 564.212 43.1723 564.065 42.983C563.921 42.7898 563.724 42.6307 563.474 42.5057C563.224 42.3807 562.904 42.3182 562.514 42.3182C561.979 42.3182 561.534 42.4413 561.178 42.6875C560.826 42.9299 560.65 43.2386 560.65 43.6136C560.65 43.947 560.771 44.2102 561.014 44.4034C561.256 44.5966 561.635 44.7576 562.15 44.8864L563.445 45.2045C564.226 45.3939 564.807 45.6837 565.19 46.0739C565.572 46.4602 565.764 46.9583 565.764 47.5682C565.764 48.0682 565.62 48.5152 565.332 48.9091C565.048 49.303 564.65 49.6136 564.139 49.8409C563.627 50.0682 563.032 50.1818 562.354 50.1818C561.464 50.1818 560.728 49.9886 560.144 49.6023C559.561 49.2159 559.192 48.6515 559.036 47.9091L560.309 47.5909C560.43 48.0606 560.659 48.4129 560.996 48.6477C561.337 48.8826 561.782 49 562.332 49C562.957 49 563.453 48.8674 563.82 48.6023C564.192 48.3333 564.377 48.0114 564.377 47.6364C564.377 47.3333 564.271 47.0795 564.059 46.875C563.847 46.6667 563.521 46.5114 563.082 46.4091L561.627 46.0682C560.828 45.8788 560.241 45.5852 559.866 45.1875C559.495 44.786 559.309 44.2841 559.309 43.6818C559.309 43.1894 559.447 42.7538 559.724 42.375C560.004 41.9962 560.385 41.6989 560.866 41.483C561.351 41.267 561.9 41.1591 562.514 41.1591C563.377 41.1591 564.055 41.3485 564.548 41.7273C565.044 42.1061 565.396 42.6061 565.604 43.2273ZM571.227 50.1818C570.409 50.1818 569.705 49.9886 569.114 49.6023C568.523 49.2159 568.068 48.6837 567.75 48.0057C567.432 47.3277 567.273 46.553 567.273 45.6818C567.273 44.7955 567.436 44.0133 567.762 43.3352C568.091 42.6534 568.549 42.1212 569.137 41.7386C569.727 41.3523 570.417 41.1591 571.205 41.1591C571.818 41.1591 572.371 41.2727 572.864 41.5C573.356 41.7273 573.76 42.0455 574.074 42.4545C574.388 42.8636 574.583 43.3409 574.659 43.8864H573.318C573.216 43.4886 572.989 43.1364 572.637 42.8295C572.288 42.5189 571.818 42.3636 571.227 42.3636C570.705 42.3636 570.246 42.5 569.852 42.7727C569.462 43.0417 569.157 43.4223 568.938 43.9148C568.722 44.4034 568.614 44.9773 568.614 45.6364C568.614 46.3106 568.72 46.8977 568.932 47.3977C569.148 47.8977 569.451 48.286 569.841 48.5625C570.235 48.839 570.697 48.9773 571.227 48.9773C571.576 48.9773 571.892 48.9167 572.176 48.7955C572.46 48.6742 572.701 48.5 572.898 48.2727C573.095 48.0455 573.235 47.7727 573.318 47.4545H574.659C574.583 47.9697 574.396 48.4337 574.097 48.8466C573.801 49.2557 573.409 49.5814 572.921 49.8239C572.436 50.0625 571.871 50.1818 571.227 50.1818ZM580.065 50.1818C579.277 50.1818 578.586 49.9943 577.991 49.6193C577.4 49.2443 576.938 48.7197 576.605 48.0455C576.275 47.3712 576.11 46.5833 576.11 45.6818C576.11 44.7727 576.275 43.9792 576.605 43.3011C576.938 42.6231 577.4 42.0966 577.991 41.7216C578.586 41.3466 579.277 41.1591 580.065 41.1591C580.853 41.1591 581.542 41.3466 582.133 41.7216C582.728 42.0966 583.19 42.6231 583.519 43.3011C583.853 43.9792 584.019 44.7727 584.019 45.6818C584.019 46.5833 583.853 47.3712 583.519 48.0455C583.19 48.7197 582.728 49.2443 582.133 49.6193C581.542 49.9943 580.853 50.1818 580.065 50.1818ZM580.065 48.9773C580.663 48.9773 581.156 48.8239 581.542 48.517C581.929 48.2102 582.215 47.8068 582.4 47.3068C582.586 46.8068 582.679 46.2652 582.679 45.6818C582.679 45.0985 582.586 44.5549 582.4 44.0511C582.215 43.5473 581.929 43.1402 581.542 42.8295C581.156 42.5189 580.663 42.3636 580.065 42.3636C579.466 42.3636 578.974 42.5189 578.588 42.8295C578.201 43.1402 577.915 43.5473 577.73 44.0511C577.544 44.5549 577.451 45.0985 577.451 45.6818C577.451 46.2652 577.544 46.8068 577.73 47.3068C577.915 47.8068 578.201 48.2102 578.588 48.517C578.974 48.8239 579.466 48.9773 580.065 48.9773ZM591.466 46.4318V41.2727H592.807V50H591.466V48.5227H591.375C591.171 48.9659 590.853 49.3428 590.421 49.6534C589.989 49.9602 589.444 50.1136 588.785 50.1136C588.239 50.1136 587.754 49.9943 587.33 49.7557C586.906 49.5133 586.572 49.1496 586.33 48.6648C586.088 48.1761 585.966 47.5606 585.966 46.8182V41.2727H587.307V46.7273C587.307 47.3636 587.485 47.8712 587.841 48.25C588.201 48.6288 588.66 48.8182 589.216 48.8182C589.55 48.8182 589.889 48.733 590.233 48.5625C590.582 48.392 590.874 48.1307 591.108 47.7784C591.347 47.4261 591.466 46.9773 591.466 46.4318ZM598.959 41.2727V42.4091H594.436V41.2727H598.959ZM595.754 39.1818H597.095V47.5C597.095 47.8788 597.15 48.1629 597.26 48.3523C597.373 48.5379 597.517 48.6629 597.692 48.7273C597.87 48.7879 598.057 48.8182 598.254 48.8182C598.402 48.8182 598.523 48.8106 598.618 48.7955C598.712 48.7765 598.788 48.7614 598.845 48.75L599.118 49.9545C599.027 49.9886 598.9 50.0227 598.737 50.0568C598.574 50.0947 598.368 50.1136 598.118 50.1136C597.739 50.1136 597.368 50.0322 597.004 49.8693C596.644 49.7064 596.345 49.4583 596.106 49.125C595.872 48.7917 595.754 48.3712 595.754 47.8636V39.1818ZM601.853 50.0909C601.573 50.0909 601.332 49.9905 601.131 49.7898C600.931 49.589 600.83 49.3485 600.83 49.0682C600.83 48.7879 600.931 48.5473 601.131 48.3466C601.332 48.1458 601.573 48.0455 601.853 48.0455C602.133 48.0455 602.374 48.1458 602.575 48.3466C602.775 48.5473 602.876 48.7879 602.876 49.0682C602.876 49.2538 602.828 49.4242 602.734 49.5795C602.643 49.7348 602.52 49.8598 602.364 49.9545C602.213 50.0455 602.042 50.0909 601.853 50.0909ZM610.241 50H608.764L613.037 38.3636H614.491L618.764 50H617.287L613.809 40.2045H613.718L610.241 50ZM610.787 45.4545H616.741V46.7045H610.787V45.4545ZM621.635 38.3636V50H620.294V38.3636H621.635ZM625.332 38.3636V50H623.991V38.3636H625.332ZM632.27 50V38.3636H636.202C637.111 38.3636 637.857 38.5189 638.44 38.8295C639.024 39.1364 639.456 39.5587 639.736 40.0966C640.016 40.6345 640.156 41.2462 640.156 41.9318C640.156 42.6174 640.016 43.2254 639.736 43.7557C639.456 44.286 639.026 44.7027 638.446 45.0057C637.867 45.3049 637.126 45.4545 636.225 45.4545H633.043V44.1818H636.179C636.8 44.1818 637.3 44.0909 637.679 43.9091C638.062 43.7273 638.338 43.4697 638.509 43.1364C638.683 42.7992 638.77 42.3977 638.77 41.9318C638.77 41.4659 638.683 41.0587 638.509 40.7102C638.334 40.3617 638.056 40.0928 637.673 39.9034C637.291 39.7102 636.785 39.6136 636.156 39.6136H633.679V50H632.27ZM637.747 44.7727L640.611 50H638.975L636.156 44.7727H637.747ZM642.223 50V41.2727H643.563V50H642.223ZM642.904 39.8182C642.643 39.8182 642.418 39.7292 642.228 39.5511C642.043 39.3731 641.95 39.1591 641.95 38.9091C641.95 38.6591 642.043 38.4451 642.228 38.267C642.418 38.089 642.643 38 642.904 38C643.166 38 643.389 38.089 643.575 38.267C643.764 38.4451 643.859 38.6591 643.859 38.9091C643.859 39.1591 643.764 39.3731 643.575 39.5511C643.389 39.7292 643.166 39.8182 642.904 39.8182ZM649.442 53.4545C648.794 53.4545 648.238 53.3712 647.772 53.2045C647.306 53.0417 646.918 52.8258 646.607 52.5568C646.3 52.2917 646.056 52.0076 645.874 51.7045L646.942 50.9545C647.063 51.1136 647.217 51.2955 647.402 51.5C647.588 51.7083 647.842 51.8883 648.164 52.0398C648.49 52.1951 648.916 52.2727 649.442 52.2727C650.147 52.2727 650.728 52.1023 651.187 51.7614C651.645 51.4205 651.874 50.8864 651.874 50.1591V48.3864H651.76C651.662 48.5455 651.522 48.7424 651.34 48.9773C651.162 49.2083 650.904 49.4148 650.567 49.5966C650.234 49.7746 649.783 49.8636 649.215 49.8636C648.51 49.8636 647.878 49.697 647.317 49.3636C646.76 49.0303 646.319 48.5455 645.993 47.9091C645.671 47.2727 645.51 46.5 645.51 45.5909C645.51 44.697 645.668 43.9186 645.982 43.2557C646.296 42.589 646.734 42.0739 647.294 41.7102C647.855 41.3428 648.503 41.1591 649.238 41.1591C649.806 41.1591 650.257 41.2538 650.59 41.4432C650.927 41.6288 651.185 41.8409 651.363 42.0795C651.544 42.3144 651.685 42.5076 651.783 42.6591H651.919V41.2727H653.215V50.25C653.215 51 653.044 51.6098 652.704 52.0795C652.366 52.553 651.912 52.8996 651.34 53.1193C650.772 53.3428 650.139 53.4545 649.442 53.4545ZM649.397 48.6591C649.935 48.6591 650.389 48.536 650.76 48.2898C651.132 48.0436 651.414 47.6894 651.607 47.2273C651.8 46.7652 651.897 46.2121 651.897 45.5682C651.897 44.9394 651.802 44.3845 651.613 43.9034C651.423 43.4223 651.143 43.0455 650.772 42.7727C650.401 42.5 649.942 42.3636 649.397 42.3636C648.829 42.3636 648.355 42.5076 647.976 42.7955C647.601 43.0833 647.319 43.4697 647.13 43.9545C646.944 44.4394 646.851 44.9773 646.851 45.5682C646.851 46.1742 646.946 46.7102 647.135 47.1761C647.329 47.6383 647.613 48.0019 647.988 48.267C648.366 48.5284 648.836 48.6591 649.397 48.6591ZM656.91 44.75V50H655.569V38.3636H656.91V42.6364H657.024C657.229 42.1856 657.535 41.8277 657.944 41.5625C658.357 41.2936 658.907 41.1591 659.592 41.1591C660.187 41.1591 660.708 41.2784 661.155 41.517C661.602 41.7519 661.948 42.1136 662.194 42.6023C662.444 43.0871 662.569 43.7045 662.569 44.4545V50H661.229V44.5455C661.229 43.8523 661.049 43.3163 660.689 42.9375C660.333 42.5549 659.838 42.3636 659.206 42.3636C658.766 42.3636 658.372 42.4564 658.024 42.642C657.679 42.8277 657.407 43.0985 657.206 43.4545C657.009 43.8106 656.91 44.2424 656.91 44.75ZM668.718 41.2727V42.4091H664.195V41.2727H668.718ZM665.513 39.1818H666.854V47.5C666.854 47.8788 666.909 48.1629 667.019 48.3523C667.133 48.5379 667.277 48.6629 667.451 48.7273C667.629 48.7879 667.817 48.8182 668.013 48.8182C668.161 48.8182 668.282 48.8106 668.377 48.7955C668.472 48.7765 668.548 48.7614 668.604 48.75L668.877 49.9545C668.786 49.9886 668.659 50.0227 668.496 50.0568C668.334 50.0947 668.127 50.1136 667.877 50.1136C667.498 50.1136 667.127 50.0322 666.763 49.8693C666.404 49.7064 666.104 49.4583 665.866 49.125C665.631 48.7917 665.513 48.3712 665.513 47.8636V39.1818ZM676.661 43.2273L675.456 43.5682C675.38 43.3674 675.269 43.1723 675.121 42.983C674.977 42.7898 674.78 42.6307 674.53 42.5057C674.28 42.3807 673.96 42.3182 673.57 42.3182C673.036 42.3182 672.591 42.4413 672.235 42.6875C671.882 42.9299 671.706 43.2386 671.706 43.6136C671.706 43.947 671.827 44.2102 672.07 44.4034C672.312 44.5966 672.691 44.7576 673.206 44.8864L674.502 45.2045C675.282 45.3939 675.863 45.6837 676.246 46.0739C676.628 46.4602 676.82 46.9583 676.82 47.5682C676.82 48.0682 676.676 48.5152 676.388 48.9091C676.104 49.303 675.706 49.6136 675.195 49.8409C674.683 50.0682 674.089 50.1818 673.411 50.1818C672.521 50.1818 671.784 49.9886 671.2 49.6023C670.617 49.2159 670.248 48.6515 670.092 47.9091L671.365 47.5909C671.486 48.0606 671.716 48.4129 672.053 48.6477C672.394 48.8826 672.839 49 673.388 49C674.013 49 674.509 48.8674 674.877 48.6023C675.248 48.3333 675.433 48.0114 675.433 47.6364C675.433 47.3333 675.327 47.0795 675.115 46.875C674.903 46.6667 674.577 46.5114 674.138 46.4091L672.683 46.0682C671.884 45.8788 671.297 45.5852 670.922 45.1875C670.551 44.786 670.365 44.2841 670.365 43.6818C670.365 43.1894 670.503 42.7538 670.78 42.375C671.06 41.9962 671.441 41.6989 671.922 41.483C672.407 41.267 672.956 41.1591 673.57 41.1591C674.433 41.1591 675.111 41.3485 675.604 41.7273C676.1 42.1061 676.452 42.6061 676.661 43.2273ZM683.32 50V38.3636H687.252C688.161 38.3636 688.907 38.5189 689.49 38.8295C690.074 39.1364 690.506 39.5587 690.786 40.0966C691.066 40.6345 691.206 41.2462 691.206 41.9318C691.206 42.6174 691.066 43.2254 690.786 43.7557C690.506 44.286 690.076 44.7027 689.496 45.0057C688.917 45.3049 688.176 45.4545 687.275 45.4545H684.093V44.1818H687.229C687.85 44.1818 688.35 44.0909 688.729 43.9091C689.112 43.7273 689.388 43.4697 689.559 43.1364C689.733 42.7992 689.82 42.3977 689.82 41.9318C689.82 41.4659 689.733 41.0587 689.559 40.7102C689.384 40.3617 689.106 40.0928 688.723 39.9034C688.341 39.7102 687.835 39.6136 687.206 39.6136H684.729V50H683.32ZM688.797 44.7727L691.661 50H690.025L687.206 44.7727H688.797ZM696.838 50.1818C695.997 50.1818 695.272 49.9962 694.662 49.625C694.056 49.25 693.588 48.7273 693.258 48.0568C692.933 47.3826 692.77 46.5985 692.77 45.7045C692.77 44.8106 692.933 44.0227 693.258 43.3409C693.588 42.6553 694.046 42.1212 694.633 41.7386C695.224 41.3523 695.914 41.1591 696.702 41.1591C697.156 41.1591 697.605 41.2348 698.048 41.3864C698.491 41.5379 698.895 41.7841 699.258 42.125C699.622 42.4621 699.912 42.9091 700.128 43.4659C700.344 44.0227 700.452 44.7083 700.452 45.5227V46.0909H693.724V44.9318H699.088C699.088 44.4394 698.989 44 698.792 43.6136C698.599 43.2273 698.323 42.9223 697.963 42.6989C697.607 42.4754 697.186 42.3636 696.702 42.3636C696.167 42.3636 695.705 42.4962 695.315 42.7614C694.929 43.0227 694.631 43.3636 694.423 43.7841C694.215 44.2045 694.111 44.6553 694.111 45.1364V45.9091C694.111 46.5682 694.224 47.1269 694.452 47.5852C694.683 48.0398 695.003 48.3864 695.412 48.625C695.821 48.8598 696.296 48.9773 696.838 48.9773C697.19 48.9773 697.508 48.928 697.792 48.8295C698.08 48.7273 698.328 48.5758 698.537 48.375C698.745 48.1705 698.906 47.9167 699.02 47.6136L700.315 47.9773C700.179 48.4167 699.95 48.803 699.628 49.1364C699.306 49.4659 698.908 49.7235 698.435 49.9091C697.961 50.0909 697.429 50.1818 696.838 50.1818ZM708.573 43.2273L707.369 43.5682C707.293 43.3674 707.181 43.1723 707.033 42.983C706.889 42.7898 706.692 42.6307 706.442 42.5057C706.192 42.3807 705.872 42.3182 705.482 42.3182C704.948 42.3182 704.503 42.4413 704.147 42.6875C703.795 42.9299 703.619 43.2386 703.619 43.6136C703.619 43.947 703.74 44.2102 703.982 44.4034C704.225 44.5966 704.603 44.7576 705.119 44.8864L706.414 45.2045C707.194 45.3939 707.776 45.6837 708.158 46.0739C708.541 46.4602 708.732 46.9583 708.732 47.5682C708.732 48.0682 708.588 48.5152 708.3 48.9091C708.016 49.303 707.619 49.6136 707.107 49.8409C706.596 50.0682 706.001 50.1818 705.323 50.1818C704.433 50.1818 703.696 49.9886 703.113 49.6023C702.53 49.2159 702.16 48.6515 702.005 47.9091L703.278 47.5909C703.399 48.0606 703.628 48.4129 703.965 48.6477C704.306 48.8826 704.751 49 705.3 49C705.925 49 706.422 48.8674 706.789 48.6023C707.16 48.3333 707.346 48.0114 707.346 47.6364C707.346 47.3333 707.24 47.0795 707.028 46.875C706.816 46.6667 706.49 46.5114 706.05 46.4091L704.596 46.0682C703.797 45.8788 703.21 45.5852 702.835 45.1875C702.463 44.786 702.278 44.2841 702.278 43.6818C702.278 43.1894 702.416 42.7538 702.692 42.375C702.973 41.9962 703.353 41.6989 703.835 41.483C704.319 41.267 704.869 41.1591 705.482 41.1591C706.346 41.1591 707.024 41.3485 707.516 41.7273C708.013 42.1061 708.365 42.6061 708.573 43.2273ZM714.31 50.1818C713.469 50.1818 712.744 49.9962 712.134 49.625C711.528 49.25 711.06 48.7273 710.73 48.0568C710.405 47.3826 710.242 46.5985 710.242 45.7045C710.242 44.8106 710.405 44.0227 710.73 43.3409C711.06 42.6553 711.518 42.1212 712.105 41.7386C712.696 41.3523 713.386 41.1591 714.173 41.1591C714.628 41.1591 715.077 41.2348 715.52 41.3864C715.963 41.5379 716.367 41.7841 716.73 42.125C717.094 42.4621 717.384 42.9091 717.6 43.4659C717.815 44.0227 717.923 44.7083 717.923 45.5227V46.0909H711.196V44.9318H716.56C716.56 44.4394 716.461 44 716.264 43.6136C716.071 43.2273 715.795 42.9223 715.435 42.6989C715.079 42.4754 714.658 42.3636 714.173 42.3636C713.639 42.3636 713.177 42.4962 712.787 42.7614C712.401 43.0227 712.103 43.3636 711.895 43.7841C711.687 44.2045 711.583 44.6553 711.583 45.1364V45.9091C711.583 46.5682 711.696 47.1269 711.923 47.5852C712.155 48.0398 712.475 48.3864 712.884 48.625C713.293 48.8598 713.768 48.9773 714.31 48.9773C714.662 48.9773 714.98 48.928 715.264 48.8295C715.552 48.7273 715.8 48.5758 716.009 48.375C716.217 48.1705 716.378 47.9167 716.492 47.6136L717.787 47.9773C717.651 48.4167 717.422 48.803 717.1 49.1364C716.778 49.4659 716.38 49.7235 715.906 49.9091C715.433 50.0909 714.901 50.1818 714.31 50.1818ZM719.863 50V41.2727H721.159V42.5909H721.25C721.409 42.1591 721.697 41.8087 722.113 41.5398C722.53 41.2708 723 41.1364 723.522 41.1364C723.621 41.1364 723.744 41.1383 723.892 41.142C724.039 41.1458 724.151 41.1515 724.227 41.1591V42.5227C724.181 42.5114 724.077 42.4943 723.914 42.4716C723.755 42.4451 723.587 42.4318 723.409 42.4318C722.984 42.4318 722.606 42.5208 722.272 42.6989C721.943 42.8731 721.681 43.1155 721.488 43.4261C721.299 43.733 721.204 44.0833 721.204 44.4773V50H719.863ZM733.118 41.2727L729.891 50H728.527L725.3 41.2727H726.755L729.164 48.2273H729.255L731.664 41.2727H733.118ZM738.135 50.1818C737.294 50.1818 736.569 49.9962 735.959 49.625C735.353 49.25 734.885 48.7273 734.555 48.0568C734.23 47.3826 734.067 46.5985 734.067 45.7045C734.067 44.8106 734.23 44.0227 734.555 43.3409C734.885 42.6553 735.343 42.1212 735.93 41.7386C736.521 41.3523 737.211 41.1591 737.998 41.1591C738.453 41.1591 738.902 41.2348 739.345 41.3864C739.788 41.5379 740.192 41.7841 740.555 42.125C740.919 42.4621 741.209 42.9091 741.425 43.4659C741.64 44.0227 741.748 44.7083 741.748 45.5227V46.0909H735.021V44.9318H740.385C740.385 44.4394 740.286 44 740.089 43.6136C739.896 43.2273 739.62 42.9223 739.26 42.6989C738.904 42.4754 738.483 42.3636 737.998 42.3636C737.464 42.3636 737.002 42.4962 736.612 42.7614C736.226 43.0227 735.928 43.3636 735.72 43.7841C735.512 44.2045 735.408 44.6553 735.408 45.1364V45.9091C735.408 46.5682 735.521 47.1269 735.748 47.5852C735.98 48.0398 736.3 48.3864 736.709 48.625C737.118 48.8598 737.593 48.9773 738.135 48.9773C738.487 48.9773 738.805 48.928 739.089 48.8295C739.377 48.7273 739.625 48.5758 739.834 48.375C740.042 48.1705 740.203 47.9167 740.317 47.6136L741.612 47.9773C741.476 48.4167 741.247 48.803 740.925 49.1364C740.603 49.4659 740.205 49.7235 739.731 49.9091C739.258 50.0909 738.726 50.1818 738.135 50.1818ZM746.984 50.1818C746.256 50.1818 745.614 49.9981 745.058 49.6307C744.501 49.2595 744.065 48.7367 743.751 48.0625C743.436 47.3845 743.279 46.5833 743.279 45.6591C743.279 44.7424 743.436 43.947 743.751 43.2727C744.065 42.5985 744.503 42.0777 745.063 41.7102C745.624 41.3428 746.272 41.1591 747.006 41.1591C747.575 41.1591 748.023 41.2538 748.353 41.4432C748.686 41.6288 748.94 41.8409 749.114 42.0795C749.292 42.3144 749.431 42.5076 749.529 42.6591H749.643V38.3636H750.984V50H749.688V48.6591H749.529C749.431 48.8182 749.29 49.0189 749.109 49.2614C748.927 49.5 748.667 49.714 748.33 49.9034C747.993 50.089 747.544 50.1818 746.984 50.1818ZM747.165 48.9773C747.703 48.9773 748.158 48.8371 748.529 48.5568C748.9 48.2727 749.183 47.8807 749.376 47.3807C749.569 46.8769 749.665 46.2955 749.665 45.6364C749.665 44.9848 749.571 44.4148 749.381 43.9261C749.192 43.4337 748.912 43.0511 748.54 42.7784C748.169 42.5019 747.711 42.3636 747.165 42.3636C746.597 42.3636 746.124 42.5095 745.745 42.8011C745.37 43.089 745.088 43.4811 744.898 43.9773C744.713 44.4697 744.62 45.0227 744.62 45.6364C744.62 46.2576 744.715 46.822 744.904 47.3295C745.097 47.8333 745.381 48.2348 745.756 48.5341C746.135 48.8295 746.605 48.9773 747.165 48.9773ZM754.503 50.0909C754.223 50.0909 753.982 49.9905 753.781 49.7898C753.581 49.589 753.48 49.3485 753.48 49.0682C753.48 48.7879 753.581 48.5473 753.781 48.3466C753.982 48.1458 754.223 48.0455 754.503 48.0455C754.783 48.0455 755.024 48.1458 755.225 48.3466C755.425 48.5473 755.526 48.7879 755.526 49.0682C755.526 49.2538 755.478 49.4242 755.384 49.5795C755.293 49.7348 755.17 49.8598 755.014 49.9545C754.863 50.0455 754.692 50.0909 754.503 50.0909Z" fill="#A5ACBA"/>
<path d="M0 1H1216V-1H0V1Z" fill="#2E3545" mask="url(#path-1-inside-1_1245_70645)"/>
</svg>
